<svg width="162" height="162" viewBox="0 0 162 162" fill="none" xmlns="http://www.w3.org/2000/svg">
<path id="Vector" d="M81 162C102.483 162 123.085 153.466 138.276 138.276C153.466 123.085 162 102.483 162 81C162 59.5175 153.466 38.9148 138.276 23.7244C123.085 8.53391 102.483 0 81 0C59.5175 0 38.9148 8.53391 23.7244 23.7244C8.53391 38.9148 0 59.5175 0 81C0 102.483 8.53391 123.085 23.7244 138.276C38.9148 153.466 59.5175 162 81 162ZM51.9223 102.99C57.5859 109.54 67.268 116.438 81 116.438C94.732 116.438 104.414 109.54 110.078 102.99C111.913 100.87 115.109 100.649 117.229 102.484C119.348 104.319 119.57 107.515 117.735 109.635C110.679 117.735 98.434 126.562 81 126.562C63.566 126.562 51.3211 117.735 44.2652 109.635C42.4301 107.515 42.6516 104.319 44.7715 102.484C46.8914 100.649 50.0871 100.87 51.9223 102.99ZM45.6891 65.8125C45.6891 63.1272 46.7558 60.5519 48.6546 58.653C50.5534 56.7542 53.1287 55.6875 55.8141 55.6875C58.4994 55.6875 61.0747 56.7542 62.9735 58.653C64.8723 60.5519 65.9391 63.1272 65.9391 65.8125C65.9391 68.4978 64.8723 71.0732 62.9735 72.972C61.0747 74.8708 58.4994 75.9375 55.8141 75.9375C53.1287 75.9375 50.5534 74.8708 48.6546 72.972C46.7558 71.0732 45.6891 68.4978 45.6891 65.8125ZM106.439 55.6875C109.124 55.6875 111.7 56.7542 113.599 58.653C115.497 60.5519 116.564 63.1272 116.564 65.8125C116.564 68.4978 115.497 71.0732 113.599 72.972C111.7 74.8708 109.124 75.9375 106.439 75.9375C103.754 75.9375 101.178 74.8708 99.2796 72.972C97.3808 71.0732 96.3141 68.4978 96.3141 65.8125C96.3141 63.1272 97.3808 60.5519 99.2796 58.653C101.178 56.7542 103.754 55.6875 106.439 55.6875Z" fill="#F0B000"/>
</svg>
