<svg width="156" height="156" viewBox="0 0 156 156" fill="none" xmlns="http://www.w3.org/2000/svg">
<path id="Vector" d="M78 14.625C42.9914 14.625 14.625 42.9914 14.625 78V90.1875C14.625 94.2398 11.3648 97.5 7.3125 97.5C3.26016 97.5 0 94.2398 0 90.1875V78C0 34.9172 34.9172 0 78 0C121.083 0 156 34.9172 156 78V121.905C156 136.713 143.995 148.718 129.157 148.718L95.55 148.688C93.0211 153.045 88.2984 156 82.875 156H73.125C65.0508 156 58.5 149.449 58.5 141.375C58.5 133.301 65.0508 126.75 73.125 126.75H82.875C88.2984 126.75 93.0211 129.705 95.55 134.062L129.188 134.093C135.921 134.093 141.375 128.639 141.375 121.905V78C141.375 42.9914 113.009 14.625 78 14.625ZM43.875 63.375H48.75C54.143 63.375 58.5 67.732 58.5 73.125V107.25C58.5 112.643 54.143 117 48.75 117H43.875C33.1195 117 24.375 108.255 24.375 97.5V82.875C24.375 72.1195 33.1195 63.375 43.875 63.375ZM112.125 63.375C122.88 63.375 131.625 72.1195 131.625 82.875V97.5C131.625 108.255 122.88 117 112.125 117H107.25C101.857 117 97.5 112.643 97.5 107.25V73.125C97.5 67.732 101.857 63.375 107.25 63.375H112.125Z" fill="#F0B000"/>
</svg>
