<svg width="124" height="136" viewBox="0 0 124 136" fill="none" xmlns="http://www.w3.org/2000/svg">
<g id="Vector">
<path fill-rule="evenodd" clip-rule="evenodd" d="M121.293 82.0225L121.104 82.6856L120.904 83.3447L120.696 83.9997L120.48 84.6504L120.254 85.2967L120.02 85.9385L119.778 86.5756L119.527 87.2079L119.269 87.8353L119.002 88.4577L118.728 89.075L118.446 89.6871L118.156 90.2938L117.86 90.8951L117.556 91.4908L117.245 92.081L116.927 92.6655L116.603 93.2442L116.272 93.817L115.934 94.384L115.591 94.945L115.241 95.4999L114.886 96.0488L114.525 96.5915L114.159 97.1281L113.788 97.6584L113.411 98.1825L113.029 98.7004L112.643 99.2119L112.253 99.7172L111.858 100.216L111.458 100.709L111.055 101.195L110.649 101.675L110.238 102.149L109.825 102.617L109.408 103.078L108.988 103.534L108.565 103.983L108.14 104.426L107.712 104.863L107.282 105.294L106.85 105.719L106.416 106.138L105.98 106.551L105.542 106.959L105.103 107.361L104.662 107.757L104.22 108.147L103.777 108.532L103.333 108.912L102.887 109.286L102.441 109.655L101.994 110.018L101.546 110.376L101.097 110.729L100.647 111.077L100.197 111.42L99.7464 111.757L99.2949 112.089L98.8428 112.417L98.3902 112.739L97.9371 113.056L97.4836 113.369L97.0295 113.676L96.5751 113.979L96.1202 114.276L95.6649 114.569L95.2092 114.857L94.7532 115.14L94.2969 115.418L93.8401 115.692L93.3831 115.96L92.9258 116.224L92.4681 116.483L92.0102 116.738L91.5519 116.988L91.0934 117.232L90.6346 117.473L90.1756 117.708L89.7162 117.939L89.2567 118.165L88.7968 118.386L88.3368 118.602L87.8765 118.814L87.4161 119.021L86.9554 119.223L86.4946 119.42L86.0336 119.613L85.5725 119.8L85.1113 119.984L84.6499 120.162L84.1885 120.335L83.7271 120.504L83.2657 120.668L82.8043 120.827L82.3429 120.982L81.8817 121.132L81.4206 121.277L80.9596 121.418L80.4989 121.554L80.0385 121.685L79.5784 121.812L79.1186 121.934L78.6593 122.053L78.2006 122.167L77.7425 122.277L77.285 122.383L76.8284 122.485L76.3725 122.584L75.9177 122.679L75.4638 122.772L75.011 122.861L74.5594 122.948L74.1091 123.032L73.66 123.114L73.2123 123.194L72.766 123.273L72.3211 123.35L71.8777 123.427L71.4358 123.503L70.9954 123.578L70.5566 123.653L70.1192 123.729L69.6833 123.805L69.2488 123.882L68.8158 123.961L68.3841 124.041L67.9537 124.123L67.5244 124.207L67.0962 124.294L66.6691 124.383L66.2427 124.476L65.8171 124.572L65.3921 124.671L64.9675 124.775L64.5431 124.882L64.1188 124.994L63.6944 125.111L63.2697 125.232L62.8444 125.358L62.4183 125.49L61.9913 125.626L61.563 125.768L61.1333 125.915L60.7018 126.068L60.2684 126.226L59.8328 126.39L59.3948 126.559L58.954 126.733L58.5102 126.912L58.0632 127.097L57.6128 127.287L57.1586 127.481L56.7005 127.681L56.2382 127.884L55.7715 128.092L55.3002 128.303L54.8241 128.518L54.343 128.736L53.8567 128.956L53.3651 129.179L52.8681 129.404L52.3654 129.631L51.8569 129.858L51.3427 130.087L50.8225 130.315L50.2964 130.544L49.7642 130.771L49.2259 130.998L48.6816 131.223L48.1311 131.446L47.5746 131.667L47.012 131.884L46.4434 132.098L45.8688 132.309L45.2884 132.514L44.7023 132.715L44.1105 132.91L43.5131 133.099L42.9105 133.282L42.3026 133.458L41.6898 133.627L41.0721 133.788L40.4499 133.941L39.8233 134.085L39.1925 134.22L38.5579 134.346L37.9197 134.461L37.2782 134.567L36.6336 134.662L35.9863 134.746L35.3366 134.818L34.6848 134.879L34.0312 134.928L33.3762 134.964L32.72 134.989L32.0631 135L31.4059 134.998L30.7485 134.984L30.0916 134.955L29.4352 134.914L28.78 134.858L28.1261 134.789L27.474 134.705L26.824 134.608L26.1766 134.496L25.5321 134.37L24.8908 134.23L24.2533 134.075L23.6198 133.906L22.9907 133.722L22.3665 133.524L21.7475 133.312L21.1341 133.084L20.5266 132.843L19.9256 132.587L19.3312 132.316L18.744 132.032L18.1642 131.733L17.5921 131.42L17.0283 131.093L16.4729 130.752L15.9262 130.398L15.3887 130.031L14.8605 129.65L14.342 129.256L13.8335 128.849L13.3351 128.43L12.8472 127.999L12.3699 127.556L11.9035 127.101L11.4481 126.634L11.0039 126.157L10.5711 125.669L10.1498 125.171L9.74016 124.662L9.34221 124.144L8.95606 123.617L8.58178 123.081L8.21941 122.536L7.86896 121.983L7.53046 121.422L7.20389 120.854L6.88922 120.279L6.58641 119.698L6.29539 119.11L6.01608 118.516L5.7484 117.917L5.49224 117.313L5.24747 116.704L5.01396 116.091L4.79157 115.474L4.58013 114.853L4.37948 114.229L4.18945 113.603L4.00985 112.974L3.84049 112.342L3.68118 111.709L3.53172 111.074L3.3919 110.438L3.26151 109.8L3.14032 109.162L3.02808 108.524L2.92455 107.885L2.82945 107.246L2.74251 106.608L2.66344 105.97L2.59195 105.333L2.52772 104.696L2.47044 104.061L2.41979 103.427L2.37543 102.795L2.33705 102.165L2.30428 101.536L2.2768 100.909L2.25425 100.285L2.23628 99.6621L2.22254 99.042L2.21268 98.4243L2.20634 97.809L2.20318 97.1963L2.20285 96.5862L2.205 95.9786L2.20929 95.3737L2.21538 94.7714L2.22295 94.1717L2.23166 93.5745L2.2412 92.9799L2.25127 92.3878L2.26156 91.798L2.27178 91.2106L2.28165 90.6255L2.29091 90.0424L2.29929 89.4614L2.30657 88.8823L2.3125 88.3049L2.31687 87.7292L2.31948 87.1548L2.32014 86.5818L2.31869 86.0099L2.31497 85.439L2.30884 84.8688L2.30018 84.2992L2.28888 83.73L2.27486 83.1609L2.25806 82.5918L2.23844 82.0225L2.21596 81.4528L2.19066 80.8824L2.16256 80.3111L2.13172 79.7389L2.09823 79.1653L2.06218 78.5903L2.02372 78.0137L1.98299 77.4352L1.94016 76.8547L1.89542 76.272L1.84899 75.687L1.8011 75.0995L1.752 74.5094L1.70194 73.9165L1.65121 73.3207L1.6001 72.722L1.54891 72.1201L1.49797 71.5151L1.4476 70.9068L1.39814 70.2952L1.34993 69.6803L1.30332 69.062L1.25868 68.4404L1.21636 67.8153L1.17673 67.1869L1.14015 66.5552L1.10699 65.9202L1.07761 65.282L1.05238 64.6405L1.03165 63.9961L1.01578 63.3486L1.00511 62.6982L1 62.0452L1.00077 61.3894L1.00774 60.7312L1.02123 60.0707L1.04154 59.408L1.06897 58.7433L1.10379 58.0767L1.14625 57.4085L1.19663 56.7388L1.25513 56.0679L1.32199 55.3959L1.39741 54.723L1.48156 54.0494L1.57462 53.3754L1.67673 52.701L1.78803 52.0266L1.90862 51.3523L2.03859 50.6783L2.17802 50.0047L2.32696 49.3319L2.48546 48.6598L2.65351 47.9888L2.83113 47.3189L3.01829 46.6503L3.21497 45.9832L3.42112 45.3176L3.63671 44.6538L3.86166 43.9917L4.09593 43.3316L4.33943 42.6736L4.5921 42.0177L4.85384 41.364L5.12456 40.7126L5.40417 40.0637L5.69258 39.4173L5.98966 38.7734L6.29532 38.132L6.60945 37.4934L6.93194 36.8574L7.26267 36.2242L7.60153 35.5937L7.9484 34.9661L8.30318 34.3412L8.66574 33.7192L9.03599 33.1L9.4138 32.4837L9.79908 31.8702L10.1917 31.2596L10.5916 30.6518L10.9987 30.0469L11.4128 29.4449L11.8339 28.8456L12.262 28.2492L12.6968 27.6556L13.1384 27.0649L13.5867 26.4769L14.0416 25.8918L14.5031 25.3094L14.9711 24.7299L15.4456 24.1531L15.9265 23.5792L16.4138 23.0081L16.9075 22.4399L17.4075 21.8745L17.9139 21.3121L18.4266 20.7526L18.9456 20.196L19.471 19.6425L20.0026 19.0921L20.5406 18.5449L21.085 18.0009L21.6357 17.4603L22.1928 16.9231L22.7565 16.3897L23.3266 15.86L23.9033 15.3344L24.4866 14.813L25.0765 14.2961L25.6732 13.7838L26.2767 13.2766L26.887 12.7746L27.5042 12.2781L28.1283 11.7876L28.7594 11.3032L29.3975 10.8253L30.0425 10.3543L30.6946 9.89049L31.3538 9.43429L32.0199 8.98605L32.693 8.54616L33.3732 8.11499L34.0602 7.69294L34.7541 7.28039L35.4549 6.87774L36.1623 6.48538L36.8764 6.1037L37.5971 5.73309L38.3241 5.37392L39.0574 5.02659L39.7969 4.69145L40.5423 4.36888L41.2935 4.05923L42.0503 3.76283L42.8125 3.48003L43.5798 3.21114L44.3521 2.95647L45.1292 2.71631L45.9107 2.49094L46.6964 2.28062L47.486 2.08558L48.2793 1.90607L49.0759 1.74228L49.8756 1.59439L50.678 1.46259L51.4829 1.34701L52.29 1.24779L53.0988 1.16503L53.9091 1.09881L54.7206 1.04921L55.5329 1.01626L56.3457 1L57.1586 1.00042L57.9714 1.0175L58.7836 1.05121L59.5951 1.10148L60.4053 1.16824L61.2141 1.25139L62.0211 1.35081L62.8259 1.46635L63.6283 1.59786L64.428 1.74514L65.2247 1.90801L66.018 2.08623L66.8078 2.27957L67.5937 2.48778L68.3755 2.71058L69.153 2.94768L69.9258 3.19879L70.6939 3.46358L71.457 3.74173L72.2148 4.0329L72.9673 4.33673L73.7142 4.65286L74.4554 4.98093L75.1907 5.32056L75.92 5.67136L76.6433 6.03294L77.3603 6.40492L78.0711 6.78688L78.7755 7.17844L79.4735 7.57919L80.1651 7.98874L80.8502 8.40667L81.5288 8.83261L82.2009 9.26614L82.8666 9.70689L83.5258 10.1545L84.1785 10.6085L84.8249 11.0686L85.465 11.5344L86.0988 12.0055L86.7265 12.4817L87.3481 12.9625L87.9637 13.4476L88.5734 13.9368L89.1774 14.4297L89.7757 14.9261L90.3685 15.4256L90.9559 15.928L91.5381 16.433L92.1151 16.9404L92.6872 17.45L93.2544 17.9616L93.8169 18.475L94.3749 18.99L94.9285 19.5065L95.4777 20.0244L96.0228 20.5436L96.5638 21.0639L97.1009 21.5853L97.6341 22.1078L98.1636 22.6313L98.6895 23.1558L99.2118 23.6813L99.7306 24.2078L100.246 24.7353L100.758 25.2638L101.267 25.7935L101.772 26.3242L102.274 26.8562L102.773 27.3894L103.269 27.9241L103.761 28.4601L104.25 28.9977L104.736 29.537L105.219 30.078L105.698 30.6209L106.174 31.1658L106.646 31.7128L107.114 32.262L107.579 32.8135L108.041 33.3675L108.498 33.9241L108.951 34.4834L109.4 35.0455L109.845 35.6105L110.286 36.1786L110.722 36.7499L111.153 37.3244L111.579 37.9022L112.001 38.4835L112.417 39.0683L112.827 39.6568L113.233 40.2489L113.632 40.8447L114.025 41.4444L114.413 42.0479L114.794 42.6553L115.168 43.2666L115.536 43.8819L115.897 44.5011L116.251 45.1243L116.598 45.7515L116.937 46.3826L117.269 47.0176L117.593 47.6565L117.908 48.2992L118.216 48.9458L118.516 49.5961L118.807 50.25L119.089 50.9075L119.363 51.5686L119.628 52.2331L119.883 52.9009L120.13 53.572L120.367 54.2462L120.595 54.9234L120.813 55.6036L121.021 56.2865L121.22 56.9721L121.409 57.6602L121.587 58.3507L121.755 59.0435L121.913 59.7383L122.061 60.4351L122.198 61.1337L122.324 61.8339L122.44 62.5356L122.545 63.2385L122.639 63.9426L122.723 64.6476L122.795 65.3533L122.857 66.0596L122.908 66.7663L122.947 67.4732L122.976 68.1801L122.993 68.8868L123 69.5932L122.996 70.2989L122.98 71.0039L122.954 71.7079L122.917 72.4108L122.869 73.1123L122.81 73.8123L122.74 74.5105L122.66 75.2067L122.569 75.9009L122.467 76.5927L122.356 77.282L122.234 77.9687L122.101 78.6525L121.959 79.3332L121.807 80.0108L121.645 80.6849L121.474 81.3556L121.293 82.0225Z" fill="#003754"/>
<path d="M121.293 82.0225V82.0225ZM121.293 82.0225L121.104 82.6856L120.904 83.3447L120.696 83.9997L120.48 84.6504L120.254 85.2967L120.02 85.9385L119.778 86.5756L119.527 87.2079L119.269 87.8353L119.002 88.4577L118.728 89.075L118.446 89.6871L118.156 90.2938L117.86 90.8951L117.556 91.4908L117.245 92.081L116.927 92.6655L116.603 93.2442L116.272 93.817L115.934 94.384L115.591 94.945L115.241 95.4999L114.886 96.0488L114.525 96.5915L114.159 97.128L113.788 97.6584L113.411 98.1825L113.029 98.7004L112.643 99.2119L112.253 99.7172L111.858 100.216L111.458 100.709L111.055 101.195L110.649 101.675L110.238 102.149L109.825 102.617L109.408 103.078L108.988 103.534L108.565 103.983L108.14 104.426L107.712 104.863L107.282 105.294L106.85 105.719L106.416 106.138L105.98 106.551L105.542 106.959L105.103 107.361L104.662 107.757L104.22 108.147L103.777 108.532L103.333 108.912L102.887 109.286L102.441 109.655L101.994 110.018L101.546 110.376L101.097 110.729L100.647 111.077L100.197 111.42L99.7464 111.757L99.2949 112.089L98.8428 112.417L98.3902 112.739L97.9371 113.056L97.4836 113.369L97.0295 113.676L96.575 113.979L96.1202 114.276L95.6649 114.569L95.2092 114.857L94.7532 115.14L94.2969 115.418L93.8402 115.692L93.3831 115.96L92.9258 116.224L92.4681 116.483L92.0102 116.738L91.5519 116.988L91.0934 117.232L90.6346 117.473L90.1756 117.708L89.7162 117.939L89.2567 118.165L88.7968 118.386L88.3368 118.602L87.8765 118.814L87.4161 119.021L86.9554 119.223L86.4946 119.42L86.0336 119.613L85.5725 119.8L85.1113 119.984L84.6499 120.162L84.1885 120.335L83.7271 120.504L83.2657 120.668L82.8043 120.827L82.3429 120.982L81.8817 121.132L81.4206 121.277L80.9596 121.418L80.4989 121.554L80.0385 121.685L79.5784 121.812L79.1186 121.934L78.6593 122.053L78.2006 122.167L77.7425 122.277L77.285 122.383L76.8284 122.485L76.3725 122.584L75.9177 122.679L75.4638 122.772L75.011 122.861L74.5594 122.948L74.1091 123.032L73.66 123.114L73.2123 123.194L72.766 123.273L72.3211 123.35L71.8777 123.427L71.4358 123.503L70.9954 123.578L70.5566 123.653L70.1192 123.729L69.6833 123.805L69.2488 123.882L68.8158 123.961L68.3841 124.041L67.9536 124.123L67.5244 124.207L67.0962 124.294L66.6691 124.383L66.2427 124.476L65.8171 124.572L65.3921 124.671L64.9675 124.775L64.5431 124.882L64.1188 124.994L63.6944 125.111L63.2697 125.232L62.8444 125.358L62.4183 125.49L61.9913 125.626L61.563 125.768L61.1333 125.915L60.7018 126.068L60.2684 126.226L59.8328 126.39L59.3948 126.559L58.954 126.733L58.5102 126.912L58.0632 127.097L57.6128 127.287L57.1586 127.481L56.7005 127.681L56.2382 127.884L55.7715 128.092L55.3002 128.303L54.8241 128.518L54.343 128.736L53.8567 128.956L53.3651 129.179L52.8681 129.404L52.3654 129.631L51.8569 129.858L51.3427 130.087L50.8225 130.315L50.2964 130.544L49.7642 130.771L49.2259 130.998L48.6816 131.223L48.1311 131.446L47.5746 131.667L47.012 131.884L46.4434 132.098L45.8688 132.309L45.2884 132.514L44.7023 132.715L44.1105 132.91L43.5131 133.099L42.9105 133.282L42.3026 133.458L41.6898 133.627L41.0721 133.788L40.4499 133.941L39.8233 134.085L39.1925 134.22L38.5579 134.346L37.9197 134.461L37.2782 134.567L36.6336 134.662L35.9863 134.746L35.3366 134.818L34.6848 134.879L34.0312 134.928L33.3762 134.964L32.72 134.989L32.0631 135L31.4059 134.998L30.7485 134.984L30.0916 134.955L29.4352 134.914L28.78 134.858L28.1261 134.789L27.474 134.705L26.824 134.608L26.1766 134.496L25.5321 134.37L24.8908 134.23L24.2533 134.075L23.6198 133.906L22.9907 133.722L22.3665 133.524L21.7475 133.312L21.1341 133.084L20.5266 132.843L19.9256 132.587L19.3312 132.316L18.744 132.032L18.1642 131.733L17.5922 131.42L17.0283 131.093L16.4729 130.752L15.9262 130.398L15.3887 130.031L14.8605 129.65L14.342 129.256L13.8335 128.849L13.3351 128.43L12.8472 127.999L12.3699 127.556L11.9035 127.101L11.4481 126.634L11.0039 126.157L10.5711 125.669L10.1498 125.171L9.74016 124.662L9.34221 124.144L8.95606 123.617L8.58178 123.081L8.21941 122.536L7.86896 121.983L7.53046 121.422L7.20389 120.854L6.88922 120.279L6.58641 119.698L6.29539 119.11L6.01608 118.516L5.7484 117.917L5.49224 117.313L5.24747 116.704L5.01396 116.091L4.79157 115.474L4.58013 114.853L4.37948 114.229L4.18945 113.603L4.00985 112.974L3.84049 112.342L3.68118 111.709L3.53172 111.074L3.3919 110.438L3.26151 109.8L3.14032 109.162L3.02808 108.524L2.92455 107.885L2.82945 107.246L2.74251 106.608L2.66344 105.97L2.59195 105.333L2.52772 104.696L2.47044 104.061L2.41979 103.427L2.37543 102.795L2.33705 102.165L2.30428 101.536L2.2768 100.909L2.25425 100.285L2.23628 99.6621L2.22254 99.042L2.21268 98.4243L2.20634 97.809L2.20318 97.1963L2.20285 96.5862L2.205 95.9786L2.20929 95.3737L2.21538 94.7714L2.22295 94.1717L2.23166 93.5745L2.2412 92.9799L2.25127 92.3878L2.26156 91.798L2.27178 91.2106L2.28165 90.6255L2.29091 90.0424L2.29929 89.4614L2.30657 88.8823L2.3125 88.3049L2.31687 87.7292L2.31948 87.1548L2.32014 86.5818L2.31869 86.01L2.31497 85.439L2.30884 84.8688L2.30018 84.2992L2.28888 83.73L2.27486 83.1609L2.25806 82.5918L2.23844 82.0225L2.21596 81.4528L2.19066 80.8824L2.16256 80.3111L2.13172 79.7389L2.09823 79.1653L2.06218 78.5903L2.02372 78.0137L1.98299 77.4352L1.94016 76.8547L1.89542 76.272L1.84899 75.687L1.8011 75.0995L1.752 74.5094L1.70194 73.9165L1.65121 73.3207L1.6001 72.722L1.54891 72.1201L1.49797 71.5151L1.4476 70.9068L1.39814 70.2952L1.34993 69.6803L1.30332 69.062L1.25868 68.4404L1.21636 67.8153L1.17673 67.1869L1.14015 66.5552L1.10699 65.9202L1.07761 65.282L1.05238 64.6405L1.03165 63.9961L1.01578 63.3486L1.00511 62.6982L1 62.0452L1.00077 61.3894L1.00774 60.7312L1.02123 60.0707L1.04154 59.408L1.06897 58.7433L1.10379 58.0767L1.14625 57.4085L1.19663 56.7388L1.25513 56.0679L1.32199 55.3959L1.39741 54.723L1.48156 54.0494L1.57462 53.3754L1.67673 52.701L1.78803 52.0266L1.90862 51.3523L2.03859 50.6783L2.17802 50.0047L2.32697 49.3319L2.48546 48.6598L2.65351 47.9888L2.83113 47.3189L3.01829 46.6503L3.21497 45.9832L3.42112 45.3176L3.63671 44.6538L3.86166 43.9917L4.09593 43.3316L4.33943 42.6736L4.5921 42.0177L4.85384 41.364L5.12456 40.7126L5.40417 40.0637L5.69258 39.4173L5.98966 38.7734L6.29532 38.132L6.60945 37.4934L6.93194 36.8574L7.26267 36.2242L7.60153 35.5937L7.9484 34.9661L8.30318 34.3412L8.66574 33.7192L9.03599 33.1L9.4138 32.4837L9.79908 31.8702L10.1917 31.2596L10.5916 30.6518L10.9987 30.0469L11.4128 29.4449L11.8339 28.8456L12.262 28.2492L12.6968 27.6556L13.1384 27.0649L13.5867 26.4769L14.0416 25.8918L14.5031 25.3094L14.9711 24.7299L15.4456 24.1531L15.9265 23.5792L16.4138 23.0081L16.9075 22.4399L17.4075 21.8745L17.9139 21.3121L18.4266 20.7526L18.9456 20.196L19.471 19.6425L20.0026 19.0921L20.5406 18.5449L21.085 18.0009L21.6357 17.4603L22.1928 16.9231L22.7565 16.3897L23.3266 15.86L23.9033 15.3344L24.4866 14.813L25.0765 14.2961L25.6732 13.7838L26.2767 13.2766L26.887 12.7746L27.5042 12.2781L28.1283 11.7876L28.7594 11.3032L29.3975 10.8253L30.0425 10.3543L30.6946 9.89049L31.3538 9.43429L32.0199 8.98605L32.693 8.54616L33.3732 8.11499L34.0602 7.69294L34.7541 7.28039L35.4549 6.87774L36.1623 6.48538L36.8764 6.1037L37.5971 5.73309L38.3241 5.37392L39.0574 5.02659L39.7969 4.69145L40.5423 4.36888L41.2935 4.05923L42.0503 3.76283L42.8125 3.48003L43.5798 3.21114L44.3521 2.95647L45.1292 2.71631L45.9107 2.49094L46.6964 2.28062L47.486 2.08558L48.2793 1.90607L49.0759 1.74228L49.8756 1.59439L50.678 1.46259L51.4829 1.34701L52.29 1.24779L53.0988 1.16503L53.9091 1.09881L54.7206 1.04921L55.5329 1.01626L56.3457 1L57.1586 1.00042L57.9714 1.0175L58.7836 1.05121L59.5951 1.10148L60.4053 1.16824L61.2141 1.25139L62.0211 1.35081L62.8259 1.46635L63.6283 1.59786L64.428 1.74514L65.2247 1.90801L66.018 2.08623L66.8078 2.27957L67.5937 2.48778L68.3755 2.71058L69.153 2.94768L69.9259 3.19879L70.6939 3.46358L71.457 3.74173L72.2148 4.0329L72.9673 4.33673L73.7142 4.65286L74.4554 4.98093L75.1907 5.32056L75.92 5.67136L76.6433 6.03294L77.3603 6.40492L78.0711 6.78688L78.7755 7.17844L79.4735 7.57919L80.1651 7.98874L80.8502 8.40667L81.5288 8.83261L82.2009 9.26614L82.8666 9.70688L83.5258 10.1545L84.1785 10.6085L84.8249 11.0686L85.465 11.5344L86.0988 12.0055L86.7265 12.4817L87.3481 12.9625L87.9637 13.4476L88.5734 13.9368L89.1774 14.4297L89.7757 14.9261L90.3685 15.4256L90.9559 15.928L91.5381 16.433L92.1151 16.9404L92.6872 17.45L93.2544 17.9616L93.8169 18.475L94.3749 18.99L94.9284 19.5065L95.4777 20.0244L96.0228 20.5436L96.5638 21.0639L97.1009 21.5853L97.6341 22.1078L98.1636 22.6313L98.6895 23.1558L99.2118 23.6813L99.7306 24.2078L100.246 24.7353L100.758 25.2638L101.267 25.7935L101.772 26.3242L102.274 26.8562L102.773 27.3894L103.269 27.9241L103.761 28.4601L104.25 28.9977L104.736 29.537L105.219 30.078L105.698 30.6209L106.174 31.1658L106.646 31.7128L107.114 32.262L107.579 32.8135L108.041 33.3675L108.498 33.9241L108.951 34.4834L109.4 35.0455L109.845 35.6106L110.286 36.1786L110.722 36.7499L111.153 37.3244L111.579 37.9022L112.001 38.4835L112.417 39.0683L112.827 39.6568L113.233 40.2489L113.632 40.8447L114.025 41.4444L114.413 42.0479L114.794 42.6553L115.168 43.2666L115.536 43.8819L115.897 44.5011L116.251 45.1243L116.598 45.7515L116.937 46.3826L117.269 47.0176L117.593 47.6565L117.908 48.2992L118.216 48.9458L118.516 49.596L118.807 50.25L119.089 50.9075L119.363 51.5686L119.628 52.2331L119.883 52.9009L120.13 53.572L120.367 54.2462L120.595 54.9234L120.813 55.6036L121.021 56.2865L121.22 56.9721L121.409 57.6602L121.587 58.3507L121.755 59.0435L121.913 59.7383L122.061 60.4351L122.198 61.1337L122.324 61.8339L122.44 62.5356L122.545 63.2385L122.639 63.9426L122.723 64.6476L122.795 65.3533L122.857 66.0596L122.908 66.7663L122.947 67.4732L122.976 68.1801L122.993 68.8868L123 69.5932L122.996 70.2989L122.98 71.0039L122.954 71.7079L122.917 72.4108L122.869 73.1123L122.81 73.8123L122.74 74.5105L122.66 75.2067L122.569 75.9009L122.467 76.5927L122.356 77.282L122.234 77.9687L122.101 78.6525L121.959 79.3332L121.807 80.0108L121.645 80.6849L121.474 81.3556L121.293 82.0225" stroke="#F0B000"/>
</g>
</svg>
