<svg width="41" height="41" viewBox="0 0 41 41" fill="none" xmlns="http://www.w3.org/2000/svg">
<g id="dribbble">
<path id="Vector" d="M20.5 0C9.18276 0 0 9.18276 0 20.5C0 31.8173 9.18276 41 20.5 41C31.795 41 41 31.8173 41 20.5C41 9.18276 31.795 0 20.5 0ZM34.0406 9.44956C36.4864 12.429 37.954 16.231 37.9984 20.3443C37.4203 20.2332 31.6393 19.0548 25.814 19.7885C25.6806 19.4995 25.5694 19.1881 25.436 18.8769C25.0802 18.0321 24.6801 17.1649 24.2798 16.3422C30.7277 13.7186 33.6627 9.93872 34.0406 9.44956ZM20.5 3.02387C24.9468 3.02387 29.0157 4.69144 32.1063 7.42625C31.795 7.87094 29.1491 11.4062 22.9235 13.7408C20.0553 8.47125 16.8759 4.15781 16.3867 3.49078C17.6984 3.1795 19.077 3.02387 20.5 3.02387ZM13.0516 4.6692C13.5185 5.29175 16.6313 9.62744 19.5439 14.7858C11.3617 16.9648 4.13558 16.9203 3.35737 16.9203C4.49132 11.4951 8.15997 6.98156 13.0516 4.6692ZM2.97939 20.5223C2.97939 20.3443 2.97939 20.1665 2.97939 19.9887C3.73536 20.0108 12.2289 20.122 20.9669 17.4984C21.4784 18.4766 21.9452 19.4772 22.39 20.4777C22.1675 20.5445 21.923 20.6112 21.7007 20.6778C12.6735 23.5905 7.87094 31.5504 7.47071 32.2174C4.69143 29.1269 2.97939 25.0136 2.97939 20.5223ZM20.5 38.0206C16.4533 38.0206 12.718 36.6421 9.76084 34.3297C10.0721 33.685 13.6296 26.8368 23.5016 23.3905C23.546 23.3682 23.5683 23.3682 23.6128 23.346C26.0807 29.7272 27.0814 35.0856 27.3482 36.6198C25.2359 37.5314 22.9235 38.0206 20.5 38.0206ZM30.2608 35.019C30.083 33.9517 29.1491 28.8379 26.859 22.5455C32.3509 21.6784 37.1534 23.1014 37.7538 23.3016C36.9979 28.1708 34.1963 32.3731 30.2608 35.019Z" fill="#F0B000"/>
</g>
</svg>
