<svg width="122" height="160" viewBox="0 0 122 160" fill="none" xmlns="http://www.w3.org/2000/svg">
<path id="Vector" d="M55.313 1.70806C58.7505 -0.558935 63.2505 -0.558935 66.688 1.70806L72.2505 5.34146C74.1255 6.55259 76.313 7.14263 78.5318 7.01841L85.188 6.6147C89.313 6.36626 93.188 8.6022 95.0318 12.2667L98.0318 18.1981C99.0318 20.1856 100.657 21.7694 102.626 22.7631L108.657 25.7754C112.344 27.6077 114.594 31.4584 114.344 35.5577L113.938 42.1723C113.813 44.3772 114.407 46.5821 115.626 48.4143L119.313 53.942C121.594 57.3581 121.594 61.8299 119.313 65.2459L115.626 70.8047C114.407 72.668 113.813 74.8419 113.938 77.0467L114.344 83.6614C114.594 87.7606 112.344 91.6114 108.657 93.4436L102.688 96.4249C100.688 97.4186 99.0943 99.0335 98.0943 100.99L95.063 106.983C93.2193 110.648 89.3443 112.884 85.2193 112.635L78.563 112.232C76.3443 112.107 74.1255 112.698 72.2818 113.909L66.7193 117.573C63.2818 119.84 58.7818 119.84 55.3443 117.573L49.7505 113.909C47.8755 112.698 45.688 112.107 43.4693 112.232L36.813 112.635C32.688 112.884 28.813 110.648 26.9693 106.983L23.9693 101.052C22.9693 99.0645 21.3443 97.4807 19.3755 96.487L13.3443 93.4747C9.65679 91.6424 7.40679 87.7916 7.65679 83.6924L8.06304 77.0778C8.18804 74.8729 7.59429 72.668 6.37554 70.8358L2.71929 65.277C0.438039 61.861 0.438039 57.3891 2.71929 53.9731L6.37554 48.4454C7.59429 46.5821 8.18804 44.4083 8.06304 42.2034L7.65679 35.5887C7.40679 31.4895 9.65679 27.6387 13.3443 25.8065L19.313 22.8252C21.313 21.8004 22.938 20.1856 23.938 18.1981L26.938 12.2667C28.7818 8.6022 32.6568 6.36626 36.7818 6.6147L43.438 7.01841C45.6568 7.14263 47.8755 6.55259 49.7193 5.34146L55.313 1.70806ZM86.0005 59.625C86.0005 53.0361 83.3666 46.717 78.6782 42.0579C73.9898 37.3988 67.631 34.7813 61.0005 34.7813C54.3701 34.7813 48.0113 37.3988 43.3229 42.0579C38.6345 46.717 36.0005 53.0361 36.0005 59.625C36.0005 66.214 38.6345 72.5331 43.3229 77.1922C48.0113 81.8513 54.3701 84.4688 61.0005 84.4688C67.631 84.4688 73.9898 81.8513 78.6782 77.1922C83.3666 72.5331 86.0005 66.214 86.0005 59.625ZM1.40679 137.2L14.8755 105.369C14.938 105.4 14.9693 105.431 15.0005 105.493L18.0005 111.424C21.6568 118.629 29.2505 123.008 37.3755 122.542L44.0318 122.138C44.0943 122.138 44.188 122.138 44.2505 122.2L49.813 125.865C51.4068 126.89 53.0943 127.697 54.8443 128.256L43.0943 155.988C42.3755 157.696 40.7818 158.845 38.938 159C37.0943 159.155 35.313 158.317 34.313 156.764L24.2505 141.454L6.71929 144.032C4.93804 144.28 3.15679 143.566 2.03179 142.168C0.906789 140.771 0.688039 138.846 1.37554 137.2H1.40679ZM78.9068 155.957L67.1568 128.256C68.9068 127.697 70.5943 126.921 72.188 125.865L77.7505 122.2C77.813 122.169 77.8755 122.138 77.9693 122.138L84.6255 122.542C92.7505 123.008 100.344 118.629 104.001 111.424L107.001 105.493C107.032 105.431 107.063 105.4 107.126 105.369L120.626 137.2C121.313 138.846 121.063 140.74 119.969 142.168C118.876 143.597 117.063 144.311 115.282 144.032L97.7505 141.454L87.688 156.733C86.688 158.286 84.9068 159.124 83.063 158.969C81.2193 158.814 79.6255 157.634 78.9068 155.957Z" fill="#F0B000"/>
</svg>
