<svg width="132" height="144" viewBox="0 0 132 144" fill="none" xmlns="http://www.w3.org/2000/svg">
<g id="Vector" filter="url(#filter0_d_46_39)">
<path fill-rule="evenodd" clip-rule="evenodd" d="M127 70.9718L127 71.6511L126.953 72.3294L126.861 73.0057L126.723 73.6784L126.54 74.3463L126.313 75.0081L126.042 75.6627L125.73 76.3089L125.376 76.9455L124.983 77.5715L124.552 78.1859L124.085 78.7879L123.583 79.3765L123.049 79.9512L122.485 80.5112L121.893 81.0561L121.274 81.5854L120.633 82.0989L119.971 82.5963L119.29 83.0775L118.594 83.5426L117.884 83.9918L117.164 84.4253L116.437 84.8435L115.704 85.2469L114.969 85.6361L114.233 86.0117L113.501 86.3747L112.773 86.7258L112.052 87.0658L111.341 87.3959L110.64 87.7169L109.952 88.0299L109.278 88.336L108.62 88.6362L107.98 88.9317L107.357 89.2236L106.755 89.5132L106.173 89.8016L105.612 90.0901L105.074 90.3797L104.558 90.6718L104.067 90.9674L103.599 91.2677L103.155 91.5739L102.735 91.8871L102.34 92.2083L101.97 92.5385L101.623 92.8788L101.3 93.2301L101.001 93.5932L100.725 93.969L100.471 94.3582L100.239 94.7615L100.028 95.1795L99.8375 95.6127L99.6657 96.0616L99.5119 96.5265L99.3751 97.0077L99.2541 97.5054L99.1476 98.0196L99.0543 98.5504L98.9729 99.0976L98.902 99.6612L98.8402 100.241L98.786 100.836L98.738 101.446L98.6946 102.071L98.6545 102.71L98.6161 103.362L98.578 104.027L98.5387 104.703L98.4969 105.39L98.4511 106.087L98.3999 106.792L98.3422 107.505L98.2767 108.225L98.2021 108.95L98.1174 109.679L98.0214 110.41L97.9134 111.144L97.7922 111.878L97.6571 112.611L97.5074 113.342L97.3424 114.07L97.1615 114.794L96.9642 115.512L96.7501 116.223L96.5189 116.926L96.2703 117.621L96.0042 118.306L95.7205 118.98L95.4192 119.642L95.1003 120.293L94.764 120.93L94.4105 121.553L94.0401 122.163L93.653 122.757L93.2497 123.336L92.8306 123.9L92.3961 124.448L91.9468 124.979L91.4832 125.495L91.0057 125.995L90.5151 126.478L90.0119 126.945L89.4967 127.397L88.9702 127.833L88.4329 128.254L87.8854 128.659L87.3284 129.05L86.7623 129.427L86.1879 129.79L85.6056 130.139L85.0159 130.476L84.4195 130.8L83.8166 131.113L83.2078 131.414L82.5934 131.704L81.9738 131.983L81.3493 132.252L80.7201 132.51L80.0864 132.759L79.4485 132.997L78.8065 133.224L78.1605 133.441L77.5107 133.647L76.8573 133.841L76.2002 134.023L75.5397 134.192L74.8759 134.348L74.2089 134.489L73.5389 134.615L72.8662 134.724L72.191 134.816L71.5136 134.891L70.8344 134.947L70.1537 134.984L69.4719 135L68.7894 134.996L68.1068 134.97L67.4245 134.922L66.7431 134.852L66.063 134.758L65.3849 134.642L64.7093 134.502L64.0368 134.338L63.368 134.151L62.7035 133.94L62.044 133.705L61.39 133.447L60.742 133.165L60.1008 132.861L59.4668 132.535L58.8405 132.187L58.2224 131.817L57.6131 131.428L57.0129 131.018L56.4223 130.59L55.8415 130.145L55.2709 129.683L54.7108 129.205L54.1613 128.713L53.6226 128.208L53.0947 127.692L52.5776 127.165L52.0714 126.629L51.5759 126.086L51.091 125.537L50.6163 124.983L50.1516 124.426L49.6964 123.868L49.2504 123.31L48.8131 122.754L48.3837 122.201L47.9617 121.653L47.5464 121.111L47.1371 120.577L46.7327 120.052L46.3326 119.538L45.9358 119.035L45.5412 118.546L45.1479 118.072L44.7548 117.613L44.3609 117.17L43.965 116.746L43.566 116.34L43.1628 115.953L42.7542 115.586L42.3392 115.24L41.9165 114.914L41.4852 114.61L41.044 114.328L40.5921 114.067L40.1283 113.828L39.6518 113.61L39.1617 113.413L38.6571 113.237L38.1374 113.081L37.6018 112.944L37.0499 112.826L36.4811 112.725L35.8951 112.641L35.2915 112.572L34.6704 112.518L34.0316 112.477L33.3752 112.447L32.7013 112.426L32.0104 112.415L31.3027 112.41L30.5788 112.41L29.8394 112.413L29.0851 112.419L28.3169 112.424L27.5355 112.428L26.7422 112.428L25.9382 112.423L25.1247 112.411L24.3035 112.39L23.476 112.359L22.644 112.314L21.8095 112.256L20.9742 112.181L20.1402 112.09L19.3095 111.979L18.4842 111.847L17.6663 111.694L16.8579 111.518L16.061 111.318L15.2776 111.094L14.5099 110.844L13.7598 110.568L13.0293 110.266L12.3205 109.936L11.6353 109.579L10.9754 109.195L10.3429 108.783L9.73931 108.344L9.16634 107.877L8.62554 107.384L8.11833 106.864L7.64604 106.319L7.20987 105.748L6.81091 105.154L6.45007 104.536L6.12817 103.896L5.84586 103.234L5.60362 102.553L5.40182 101.853L5.24062 101.135L5.12006 100.402L5.04 99.6536L5.00014 98.8924L5 98.1197L5.03896 97.337L5.11623 96.5458L5.23086 95.7479L5.38173 94.9446L5.56758 94.1377L5.78701 93.3286L6.03845 92.5189L6.32021 91.71L6.63047 90.9035L6.96728 90.1006L7.32857 89.3027L7.71217 88.511L8.11582 87.7268L8.53716 86.9512L8.97375 86.1851L9.42309 85.4295L9.88262 84.6852L10.3498 83.953L10.8219 83.2334L11.2963 82.5269L11.7704 81.834L12.2415 81.155L12.707 80.4899L13.1643 79.8389L13.6109 79.2019L14.0442 78.5787L14.462 77.9691L14.8618 77.3726L15.2415 76.7888L15.5988 76.217L15.932 75.6566L16.239 75.1068L16.5183 74.5667L16.7682 74.0355L16.9875 73.5119L17.1748 72.9951L17.3293 72.4839L17.45 71.9771L17.5365 71.4735L17.5881 70.9718L17.6048 70.4709L17.5866 69.9695L17.5336 69.4664L17.4462 68.9603L17.3251 68.45L17.1712 67.9343L16.9853 67.4123L16.7688 66.8827L16.5229 66.3446L16.2494 65.7971L15.9498 65.2394L15.6261 64.6706L15.2802 64.0901L14.9142 63.4973L14.5302 62.8918L14.1305 62.2732L13.7175 61.6411L13.2933 60.9955L12.8605 60.3362L12.4216 59.6633L11.9793 58.977L11.5363 58.2776L11.0954 57.5655L10.6594 56.8414L10.2313 56.106L9.81375 55.36L9.40964 54.6045L9.02165 53.8404L8.6524 53.069L8.30439 52.2913L7.97995 51.5088L7.68125 50.7227L7.41029 49.9344L7.169 49.1455L6.95917 48.3573L6.7825 47.5716L6.64059 46.7898L6.53493 46.0136L6.46687 45.2448L6.43763 44.4851L6.44826 43.7362L6.49967 42.9997L6.59257 42.2775L6.7275 41.5712L6.90483 40.8825L7.12473 40.2129L7.38717 39.5639L7.69195 38.937L8.03866 38.3336L8.42673 37.755L8.85539 37.2022L9.3237 36.6764L9.83055 36.1785L10.3747 35.7092L10.9546 35.2694L11.5688 34.8593L12.2155 34.4796L12.8929 34.1302L13.5991 33.8115L14.332 33.5232L15.0895 33.2651L15.8693 33.0369L16.6692 32.838L17.4869 32.6677L18.3199 32.5251L19.166 32.4092L20.0226 32.319L20.8875 32.2531L21.7583 32.2102L22.6325 32.1887L23.508 32.187L24.3825 32.2033L25.2537 32.2359L26.1197 32.2827L26.9783 32.3418L27.8278 32.4111L28.6662 32.4886L29.4918 32.572L30.3031 32.6591L31.0987 32.7478L31.8772 32.8358L32.6374 32.921L33.3783 33.001L34.099 33.0739L34.7988 33.1373L35.477 33.1893L36.1332 33.2278L36.767 33.2509L37.3784 33.2567L37.9672 33.2435L38.5336 33.2096L39.0778 33.1534L39.6002 33.0734L40.1013 32.9685L40.5817 32.8373L41.0422 32.6789L41.4835 32.4922L41.9067 32.2766L42.3127 32.0314L42.7026 31.7562L43.0777 31.4506L43.4392 31.1144L43.7884 30.7478L44.1266 30.3507L44.4553 29.9236L44.776 29.467L45.0899 28.9813L45.3988 28.4676L45.7039 27.9266L46.0069 27.3595L46.3091 26.7676L46.6122 26.1522L46.9175 25.5151L47.2264 24.8579L47.5403 24.1825L47.8606 23.4909L48.1885 22.7851L48.5251 22.0672L48.8715 21.3394L49.2287 20.6036L49.5974 19.862L49.9786 19.1165L50.3728 18.3693L50.7806 17.6221L51.2024 16.8769L51.6387 16.1354L52.0897 15.3994L52.5555 14.6703L53.0364 13.9497L53.5322 13.2388L54.043 12.5388L54.5687 11.851L55.109 11.1764L55.6639 10.5161L56.233 9.87124L56.8161 9.24282L57.4129 8.6319L58.023 8.03946L58.646 7.46648L59.2815 6.91386L59.9291 6.38244L60.5881 5.87304L61.2582 5.38638L61.9387 4.92314L62.629 4.48394L63.3286 4.06933L64.0368 3.67979L64.7529 3.31576L65.4764 2.9776L66.2066 2.66562L66.9427 2.38007L67.6841 2.12116L68.4302 1.88903L69.1802 1.6838L69.9335 1.5055L70.6894 1.35417L71.4472 1.22978L72.2061 1.13227L72.9657 1.06155L73.7252 1.01751L74.4839 1L75.2412 1.00885L75.9965 1.04386L76.7491 1.10483L77.4984 1.19152L78.2437 1.30369L78.9846 1.44108L79.7204 1.60342L80.4504 1.79042L81.1742 2.00179L81.8912 2.23722L82.6007 2.49639L83.3023 2.77898L83.9954 3.08465L84.6794 3.41307L85.3539 3.76388L86.0183 4.13671L86.6722 4.53119L87.315 4.94695L87.9463 5.38359L88.5656 5.8407L89.1723 6.31787L89.7662 6.81468L90.3468 7.33068L90.9136 7.86542L91.4662 8.41844L92.0043 8.98925L92.5275 9.57736L93.0355 10.1823L93.5278 10.8034L94.0043 11.4403L94.4645 12.0924L94.9083 12.7591L95.3354 13.4398L95.7455 14.1339L96.1385 14.8408L96.5142 15.56L96.8723 16.2906L97.2129 17.0322L97.5358 17.784L97.8409 18.5453L98.1283 19.3155L98.3978 20.0939L98.6494 20.8797L98.8834 21.6723L99.0997 22.4709L99.2984 23.2748L99.4797 24.0833L99.6437 24.8956L99.7907 25.7111L99.921 26.5289L100.035 27.3483L100.132 28.1686L100.214 28.989L100.28 29.8087L100.331 30.627L100.369 31.4428L100.392 32.2553L100.403 33.0634L100.402 33.866L100.391 34.6621L100.37 35.4506L100.341 36.2302L100.305 36.9998L100.264 37.7583L100.219 38.5045L100.173 39.2372L100.127 39.9555L100.083 40.6581L100.042 41.3441L100.008 42.0126L99.9818 42.6629L99.9652 43.2942L99.9605 43.9061L99.9696 44.498L99.9944 45.0696L100.037 45.6208L100.099 46.1513L100.181 46.6614L100.287 47.1511L100.416 47.6209L100.571 48.0712L100.753 48.5025L100.962 48.9156L101.2 49.3113L101.467 49.6907L101.765 50.0546L102.092 50.4042L102.45 50.7408L102.839 51.0657L103.258 51.3803L103.707 51.6859L104.186 51.984L104.693 52.2761L105.229 52.5637L105.792 52.8485L106.38 53.1318L106.993 53.4152L107.629 53.7003L108.286 53.9885L108.963 54.2812L109.657 54.5799L110.367 54.8858L111.09 55.2002L111.825 55.5244L112.568 55.8595L113.318 56.2064L114.071 56.5661L114.826 56.9395L115.579 57.3272L116.329 57.73L117.072 58.1484L117.806 58.5827L118.528 59.0332L119.235 59.5003L119.926 59.9838L120.597 60.4838L121.247 61.0002L121.871 61.5326L122.469 62.0807L123.039 62.644L123.576 63.222L124.081 63.8139L124.551 64.419L124.984 65.0364L125.378 65.6652L125.733 66.3044L126.046 66.9529L126.316 67.6095L126.543 68.2731L126.725 68.9424L126.863 69.6162L126.954 70.2931L127 70.9718Z" fill="#003754"/>
<path fill-rule="evenodd" clip-rule="evenodd" d="M127 70.9718L127 71.6511L126.953 72.3294L126.861 73.0057L126.723 73.6784L126.54 74.3463L126.313 75.0081L126.042 75.6627L125.73 76.3089L125.376 76.9455L124.983 77.5715L124.552 78.1859L124.085 78.7879L123.583 79.3765L123.049 79.9512L122.485 80.5112L121.893 81.0561L121.274 81.5854L120.633 82.0989L119.971 82.5963L119.29 83.0775L118.594 83.5426L117.884 83.9918L117.164 84.4253L116.437 84.8435L115.704 85.2469L114.969 85.6361L114.233 86.0117L113.501 86.3747L112.773 86.7258L112.052 87.0658L111.341 87.3959L110.64 87.7169L109.952 88.0299L109.278 88.336L108.62 88.6362L107.98 88.9317L107.357 89.2236L106.755 89.5132L106.173 89.8016L105.612 90.0901L105.074 90.3797L104.558 90.6718L104.067 90.9674L103.599 91.2677L103.155 91.5739L102.735 91.8871L102.34 92.2083L101.97 92.5385L101.623 92.8788L101.3 93.2301L101.001 93.5932L100.725 93.969L100.471 94.3582L100.239 94.7615L100.028 95.1795L99.8375 95.6127L99.6657 96.0616L99.5119 96.5265L99.3751 97.0077L99.2541 97.5054L99.1476 98.0196L99.0543 98.5504L98.9729 99.0976L98.902 99.6612L98.8402 100.241L98.786 100.836L98.738 101.446L98.6946 102.071L98.6545 102.71L98.6161 103.362L98.578 104.027L98.5387 104.703L98.4969 105.39L98.4511 106.087L98.3999 106.792L98.3422 107.505L98.2767 108.225L98.2021 108.95L98.1174 109.679L98.0214 110.41L97.9134 111.144L97.7922 111.878L97.6571 112.611L97.5074 113.342L97.3424 114.07L97.1615 114.794L96.9642 115.512L96.7501 116.223L96.5189 116.926L96.2703 117.621L96.0042 118.306L95.7205 118.98L95.4192 119.642L95.1003 120.293L94.764 120.93L94.4105 121.553L94.0401 122.163L93.653 122.757L93.2497 123.336L92.8306 123.9L92.3961 124.448L91.9468 124.979L91.4832 125.495L91.0057 125.995L90.5151 126.478L90.0119 126.945L89.4967 127.397L88.9702 127.833L88.4329 128.254L87.8854 128.659L87.3284 129.05L86.7623 129.427L86.1879 129.79L85.6056 130.139L85.0159 130.476L84.4195 130.8L83.8166 131.113L83.2078 131.414L82.5934 131.704L81.9738 131.983L81.3493 132.252L80.7201 132.51L80.0864 132.759L79.4485 132.997L78.8065 133.224L78.1605 133.441L77.5107 133.647L76.8573 133.841L76.2002 134.023L75.5397 134.192L74.8759 134.348L74.2089 134.489L73.5389 134.615L72.8662 134.724L72.191 134.816L71.5136 134.891L70.8344 134.947L70.1537 134.984L69.4719 135L68.7894 134.996L68.1068 134.97L67.4245 134.922L66.7431 134.852L66.063 134.758L65.3849 134.642L64.7093 134.502L64.0368 134.338L63.368 134.151L62.7035 133.94L62.044 133.705L61.39 133.447L60.742 133.165L60.1008 132.861L59.4668 132.535L58.8405 132.187L58.2224 131.817L57.6131 131.428L57.0129 131.018L56.4223 130.59L55.8415 130.145L55.2709 129.683L54.7108 129.205L54.1613 128.713L53.6226 128.208L53.0947 127.692L52.5776 127.165L52.0714 126.629L51.5759 126.086L51.091 125.537L50.6163 124.983L50.1516 124.426L49.6964 123.868L49.2504 123.31L48.8131 122.754L48.3837 122.201L47.9617 121.653L47.5464 121.111L47.1371 120.577L46.7327 120.052L46.3326 119.538L45.9358 119.035L45.5412 118.546L45.1479 118.072L44.7548 117.613L44.3609 117.17L43.965 116.746L43.566 116.34L43.1628 115.953L42.7542 115.586L42.3392 115.24L41.9165 114.914L41.4852 114.61L41.044 114.328L40.5921 114.067L40.1283 113.828L39.6518 113.61L39.1617 113.413L38.6571 113.237L38.1374 113.081L37.6018 112.944L37.0499 112.826L36.4811 112.725L35.8951 112.641L35.2915 112.572L34.6704 112.518L34.0316 112.477L33.3752 112.447L32.7013 112.426L32.0104 112.415L31.3027 112.41L30.5788 112.41L29.8394 112.413L29.0851 112.419L28.3169 112.424L27.5355 112.428L26.7422 112.428L25.9382 112.423L25.1247 112.411L24.3035 112.39L23.476 112.359L22.644 112.314L21.8095 112.256L20.9742 112.181L20.1402 112.09L19.3095 111.979L18.4842 111.847L17.6663 111.694L16.8579 111.518L16.061 111.318L15.2776 111.094L14.5099 110.844L13.7598 110.568L13.0293 110.266L12.3205 109.936L11.6353 109.579L10.9754 109.195L10.3429 108.783L9.73931 108.344L9.16634 107.877L8.62554 107.384L8.11833 106.864L7.64604 106.319L7.20987 105.748L6.81091 105.154L6.45007 104.536L6.12817 103.896L5.84586 103.234L5.60362 102.553L5.40182 101.853L5.24062 101.135L5.12006 100.402L5.04 99.6536L5.00014 98.8924L5 98.1197L5.03896 97.337L5.11623 96.5458L5.23086 95.7479L5.38173 94.9446L5.56758 94.1377L5.78701 93.3286L6.03845 92.5189L6.32021 91.71L6.63047 90.9035L6.96728 90.1006L7.32857 89.3027L7.71217 88.511L8.11582 87.7268L8.53716 86.9512L8.97375 86.1851L9.42309 85.4295L9.88262 84.6852L10.3498 83.953L10.8219 83.2334L11.2963 82.5269L11.7704 81.834L12.2415 81.155L12.707 80.4899L13.1643 79.8389L13.6109 79.2019L14.0442 78.5787L14.462 77.9691L14.8618 77.3726L15.2415 76.7888L15.5988 76.217L15.932 75.6566L16.239 75.1068L16.5183 74.5667L16.7682 74.0355L16.9875 73.5119L17.1748 72.9951L17.3293 72.4839L17.45 71.9771L17.5365 71.4735L17.5881 70.9718L17.6048 70.4709L17.5866 69.9695L17.5336 69.4664L17.4462 68.9603L17.3251 68.45L17.1712 67.9343L16.9853 67.4123L16.7688 66.8827L16.5229 66.3446L16.2494 65.7971L15.9498 65.2394L15.6261 64.6706L15.2802 64.0901L14.9142 63.4973L14.5302 62.8918L14.1305 62.2732L13.7175 61.6411L13.2933 60.9955L12.8605 60.3362L12.4216 59.6633L11.9793 58.977L11.5363 58.2776L11.0954 57.5655L10.6594 56.8414L10.2313 56.106L9.81375 55.36L9.40964 54.6045L9.02165 53.8404L8.6524 53.069L8.30439 52.2913L7.97995 51.5088L7.68125 50.7227L7.41029 49.9344L7.169 49.1455L6.95917 48.3573L6.7825 47.5716L6.64059 46.7898L6.53493 46.0136L6.46687 45.2448L6.43763 44.4851L6.44826 43.7362L6.49967 42.9997L6.59257 42.2775L6.7275 41.5712L6.90483 40.8825L7.12473 40.2129L7.38717 39.5639L7.69195 38.937L8.03866 38.3336L8.42673 37.755L8.85539 37.2022L9.3237 36.6764L9.83055 36.1785L10.3747 35.7092L10.9546 35.2694L11.5688 34.8593L12.2155 34.4796L12.8929 34.1302L13.5991 33.8115L14.332 33.5232L15.0895 33.2651L15.8693 33.0369L16.6692 32.838L17.4869 32.6677L18.3199 32.5251L19.166 32.4092L20.0226 32.319L20.8875 32.2531L21.7583 32.2102L22.6325 32.1887L23.508 32.187L24.3825 32.2033L25.2537 32.2359L26.1197 32.2827L26.9783 32.3418L27.8278 32.4111L28.6662 32.4886L29.4918 32.572L30.3031 32.6591L31.0987 32.7478L31.8772 32.8358L32.6374 32.921L33.3783 33.001L34.099 33.0739L34.7988 33.1373L35.477 33.1893L36.1332 33.2278L36.767 33.2509L37.3784 33.2567L37.9672 33.2435L38.5336 33.2096L39.0778 33.1534L39.6002 33.0734L40.1013 32.9685L40.5817 32.8373L41.0422 32.6789L41.4835 32.4922L41.9067 32.2766L42.3127 32.0314L42.7026 31.7562L43.0777 31.4506L43.4392 31.1144L43.7884 30.7478L44.1266 30.3507L44.4553 29.9236L44.776 29.467L45.0899 28.9813L45.3988 28.4676L45.7039 27.9266L46.0069 27.3595L46.3091 26.7676L46.6122 26.1522L46.9175 25.5151L47.2264 24.8579L47.5403 24.1825L47.8606 23.4909L48.1885 22.7851L48.5251 22.0672L48.8715 21.3394L49.2287 20.6036L49.5974 19.862L49.9786 19.1165L50.3728 18.3693L50.7806 17.6221L51.2024 16.8769L51.6387 16.1354L52.0897 15.3994L52.5555 14.6703L53.0364 13.9497L53.5322 13.2388L54.043 12.5388L54.5687 11.851L55.109 11.1764L55.6639 10.5161L56.233 9.87124L56.8161 9.24282L57.4129 8.6319L58.023 8.03946L58.646 7.46648L59.2815 6.91386L59.9291 6.38244L60.5881 5.87304L61.2582 5.38638L61.9387 4.92314L62.629 4.48394L63.3286 4.06933L64.0368 3.67979L64.7529 3.31576L65.4764 2.9776L66.2066 2.66562L66.9427 2.38007L67.6841 2.12116L68.4302 1.88903L69.1802 1.6838L69.9335 1.5055L70.6894 1.35417L71.4472 1.22978L72.2061 1.13227L72.9657 1.06155L73.7252 1.01751L74.4839 1L75.2412 1.00885L75.9965 1.04386L76.7491 1.10483L77.4984 1.19152L78.2437 1.30369L78.9846 1.44108L79.7204 1.60342L80.4504 1.79042L81.1742 2.00179L81.8912 2.23722L82.6007 2.49639L83.3023 2.77898L83.9954 3.08465L84.6794 3.41307L85.3539 3.76388L86.0183 4.13671L86.6722 4.53119L87.315 4.94695L87.9463 5.38359L88.5656 5.8407L89.1723 6.31787L89.7662 6.81468L90.3468 7.33068L90.9136 7.86542L91.4662 8.41844L92.0043 8.98925L92.5275 9.57736L93.0355 10.1823L93.5278 10.8034L94.0043 11.4403L94.4645 12.0924L94.9083 12.7591L95.3354 13.4398L95.7455 14.1339L96.1385 14.8408L96.5142 15.56L96.8723 16.2906L97.2129 17.0322L97.5358 17.784L97.8409 18.5453L98.1283 19.3155L98.3978 20.0939L98.6494 20.8797L98.8834 21.6723L99.0997 22.4709L99.2984 23.2748L99.4797 24.0833L99.6437 24.8956L99.7907 25.7111L99.921 26.5289L100.035 27.3483L100.132 28.1686L100.214 28.989L100.28 29.8087L100.331 30.627L100.369 31.4428L100.392 32.2553L100.403 33.0634L100.402 33.866L100.391 34.6621L100.37 35.4506L100.341 36.2302L100.305 36.9998L100.264 37.7583L100.219 38.5045L100.173 39.2372L100.127 39.9555L100.083 40.6581L100.042 41.3441L100.008 42.0126L99.9818 42.6629L99.9652 43.2942L99.9605 43.9061L99.9696 44.498L99.9944 45.0696L100.037 45.6208L100.099 46.1513L100.181 46.6614L100.287 47.1511L100.416 47.6209L100.571 48.0712L100.753 48.5025L100.962 48.9156L101.2 49.3113L101.467 49.6907L101.765 50.0546L102.092 50.4042L102.45 50.7408L102.839 51.0657L103.258 51.3803L103.707 51.6859L104.186 51.984L104.693 52.2761L105.229 52.5637L105.792 52.8485L106.38 53.1318L106.993 53.4152L107.629 53.7003L108.286 53.9885L108.963 54.2812L109.657 54.5799L110.367 54.8858L111.09 55.2002L111.825 55.5244L112.568 55.8595L113.318 56.2064L114.071 56.5661L114.826 56.9395L115.579 57.3272L116.329 57.73L117.072 58.1484L117.806 58.5827L118.528 59.0332L119.235 59.5003L119.926 59.9838L120.597 60.4838L121.247 61.0002L121.871 61.5326L122.469 62.0807L123.039 62.644L123.576 63.222L124.081 63.8139L124.551 64.419L124.984 65.0364L125.378 65.6652L125.733 66.3044L126.046 66.9529L126.316 67.6095L126.543 68.2731L126.725 68.9424L126.863 69.6162L126.954 70.2931L127 70.9718Z" stroke="#F0B000"/>
</g>
<defs>
<filter id="filter0_d_46_39" x="0.5" y="0.5" width="131" height="143" filterUnits="userSpaceOnUse" color-interpolation-filters="sRGB">
<feFlood flood-opacity="0" result="BackgroundImageFix"/>
<feColorMatrix in="SourceAlpha" type="matrix" values="0 0 0 0 0 0 0 0 0 0 0 0 0 0 0 0 0 0 127 0" result="hardAlpha"/>
<feOffset dy="4"/>
<feGaussianBlur stdDeviation="2"/>
<feComposite in2="hardAlpha" operator="out"/>
<feColorMatrix type="matrix" values="0 0 0 0 0 0 0 0 0 0 0 0 0 0 0 0 0 0 0.25 0"/>
<feBlend mode="normal" in2="BackgroundImageFix" result="effect1_dropShadow_46_39"/>
<feBlend mode="normal" in="SourceGraphic" in2="effect1_dropShadow_46_39" result="shape"/>
</filter>
</defs>
</svg>
