<svg width="142" height="136" viewBox="0 0 142 136" fill="none" xmlns="http://www.w3.org/2000/svg">
<path id="Vector" fill-rule="evenodd" clip-rule="evenodd" d="M135.419 64.5584L134.789 65.5964L134.134 66.6162L133.453 67.617L132.748 68.5981L132.021 69.5589L131.273 70.4988L130.504 71.4174L129.718 72.3141L128.914 73.1886L128.094 74.0406L127.26 74.8699L126.413 75.6762L125.555 76.4595L124.686 77.2197L123.809 77.9568L122.925 78.6711L122.036 79.3628L121.144 80.0323L120.251 80.6803L119.36 81.3073L118.473 81.9144L117.593 82.5026L116.721 83.0731L115.861 83.6271L115.016 84.1664L114.187 84.6927L113.378 85.2077L112.592 85.7137L111.83 86.2129L111.097 86.7077L110.394 87.2007L109.723 87.6945L109.087 88.1917L108.487 88.6951L107.925 89.2073L107.401 89.7309L106.917 90.2686L106.473 90.8228L106.07 91.3958L105.706 91.99L105.382 92.6075L105.096 93.2502L104.848 93.9198L104.636 94.6179L104.458 95.3458L104.314 96.1047L104.2 96.8954L104.114 97.7184L104.053 98.574L104.016 99.4623L103.998 100.383L103.997 101.335L104.01 102.319L104.033 103.332L104.063 104.374L104.097 105.442L104.131 106.535L104.161 107.649L104.185 108.784L104.198 109.935V111.101L104.181 112.276L104.145 113.459L104.086 114.646L104.002 115.832L103.889 117.013L103.746 118.187L103.571 119.348L103.361 120.493L103.115 121.618L102.832 122.718L102.509 123.79L102.147 124.829L101.745 125.832L101.303 126.796L100.819 127.716L100.295 128.589L99.7312 129.413L99.128 130.184L98.4864 130.9L97.8076 131.558L97.0931 132.157L96.3444 132.695L95.5635 133.171L94.7522 133.583L93.9127 133.931L93.0473 134.215L92.1583 134.434L91.2483 134.59L90.3197 134.683L89.3752 134.714L88.4174 134.684L87.4488 134.596L86.4722 134.451L85.49 134.252L84.5049 134.002L83.5191 133.703L82.5352 133.359L81.5555 132.974L80.5821 132.553L79.6173 132.098L78.663 131.616L77.7209 131.111L76.7925 130.588L75.8792 130.053L74.9822 129.51L74.1022 128.965L73.2398 128.422L72.3954 127.887L71.5692 127.363L70.7609 126.856L69.9703 126.369L69.1968 125.905L68.4396 125.469L67.6978 125.064L66.9704 124.692L66.2561 124.356L65.5537 124.058L64.8617 123.801L64.1786 123.587L63.5026 123.417L62.8322 123.292L62.1656 123.213L61.501 123.18L60.8366 123.194L60.1706 123.254L59.5013 123.36L58.8269 123.511L58.1457 123.705L57.4562 123.941L56.7569 124.216L56.0464 124.529L55.3233 124.877L54.5865 125.258L53.835 125.667L53.068 126.103L52.2848 126.561L51.4848 127.039L50.6676 127.532L49.833 128.037L48.9811 128.549L48.112 129.066L47.226 129.583L46.3236 130.095L45.4055 130.601L44.4724 131.095L43.5253 131.574L42.5654 132.034L41.5939 132.471L40.6122 132.884L39.6217 133.267L38.624 133.619L37.6208 133.936L36.6138 134.216L35.6048 134.456L34.5956 134.655L33.5883 134.811L32.5845 134.921L31.5863 134.984L30.5955 135L29.6139 134.967L28.6434 134.885L27.6857 134.754L26.7426 134.572L25.8155 134.342L24.9061 134.062L24.0156 133.733L23.1455 133.357L22.2968 132.934L21.4706 132.466L20.6678 131.954L19.889 131.4L19.1349 130.806L18.4058 130.173L17.702 129.504L17.0236 128.8L16.3705 128.065L15.7426 127.3L15.1396 126.508L14.5609 125.691L14.0059 124.851L13.4741 123.991L12.9646 123.113L12.4766 122.219L12.009 121.312L11.561 120.393L11.1315 119.464L10.7193 118.527L10.3235 117.585L9.94285 116.637L9.57638 115.687L9.22306 114.735L8.88195 113.781L8.55219 112.828L8.23303 111.876L7.92378 110.925L7.62377 109.976L7.33233 109.03L7.04882 108.087L6.77264 107.146L6.50322 106.21L6.24001 105.277L5.98248 104.348L5.73013 103.424L5.48255 102.503L5.23933 101.587L5.00018 100.675L4.76485 99.7664L4.53319 98.8621L4.30513 97.9614L4.08066 97.0641L3.85991 96.1699L3.64304 95.2784L3.43033 94.3894L3.22214 93.5024L3.0189 92.6171L2.82112 91.7332L2.62937 90.8502L2.4443 89.9678L2.2666 89.0857L2.09703 88.2036L1.93636 87.3212L1.78544 86.4384L1.64509 85.5549L1.51619 84.6705L1.39961 83.7853L1.29622 82.8992L1.20689 82.0122L1.13248 81.1243L1.0738 80.2358L1.03167 79.3468L1.00683 78.4576L1 77.5684L1.01186 76.6795L1.04303 75.7915L1.09405 74.9046L1.16544 74.0195L1.25763 73.1365L1.37098 72.2563L1.5058 71.3794L1.66232 70.5064L1.84071 69.6379L2.04105 68.7746L2.26338 67.9171L2.50763 67.0661L2.77371 66.2222L3.06142 65.3861L3.37051 64.5584L3.70066 63.7397L4.05147 62.9307L4.42249 62.132L4.81316 61.3442L5.22289 60.5677L5.65097 59.8032L6.0966 59.0511L6.55892 58.3119L7.03696 57.5858L7.52969 56.8733L8.03605 56.1746L8.55491 55.49L9.0851 54.8195L9.62544 54.1633L10.1749 53.5213L10.7324 52.8937L11.2974 52.2805L11.8692 51.6817L12.4473 51.0973L13.0312 50.5274L13.6205 49.972L14.215 49.4312L14.8143 48.9049L15.4182 48.3933L16.0262 47.8962L16.6382 47.4139L17.2536 46.9461L17.872 46.4928L18.4928 46.0539L19.1155 45.6292L19.7395 45.2185L20.3639 44.8214L20.988 44.4377L21.6112 44.0669L22.2327 43.7086L22.8516 43.3623L23.467 43.0273L24.0783 42.7031L24.6845 42.389L25.2849 42.0842L25.8785 41.7879L26.4645 41.4993L27.0422 41.2173L27.6107 40.9412L28.1693 40.6697L28.7173 40.4019L29.254 40.1367L29.7786 39.873L30.2908 39.6094L30.7898 39.345L31.2753 39.0784L31.7469 38.8086L32.2041 38.5342L32.6469 38.2541L33.0751 37.9671L33.4885 37.6721L33.8872 37.3679L34.2712 37.0535L34.6409 36.7279L34.9964 36.3902L35.3381 36.0394L35.6665 35.6747L35.9822 35.2954L36.2857 34.901L36.5777 34.4908L36.8591 34.0644L37.1307 33.6215L37.3933 33.1618L37.648 32.6852L37.8956 32.1918L38.1373 31.6815L38.3742 31.1546L38.6072 30.6113L38.8375 30.052L39.0662 29.4773L39.2944 28.8876L39.5232 28.2836L39.7537 27.6661L39.9869 27.0356L40.2238 26.3931L40.4653 25.7395L40.7125 25.0756L40.9661 24.4022L41.227 23.7205L41.496 23.0311L41.7738 22.3353L42.0611 21.6337L42.3584 20.9274L42.6663 20.2173L42.9853 19.5043L43.3159 18.7892L43.6585 18.0731L44.0134 17.3567L44.381 16.6408L44.7615 15.9263L45.1551 15.2138L45.562 14.5043L45.9823 13.7983L46.4163 13.0969L46.8641 12.4009L47.3257 11.7115L47.8014 11.0296L48.2912 10.3565L48.7951 9.69348L49.3133 9.04182L49.8455 8.40298L50.392 7.77848L50.9524 7.16997L51.5267 6.57916L52.1148 6.00793L52.7163 5.45825L53.3309 4.93225L53.9583 4.4321L54.598 3.95988L55.2493 3.51752L55.9117 3.10683L56.5843 2.7294L57.2662 2.38669L57.9567 2.07994L58.6547 1.81019L59.3592 1.57826L60.0691 1.38478L60.7834 1.23014L61.501 1.11453L62.2207 1.0379L62.9416 1L63.6624 1.00034L64.3823 1.03824L65.1001 1.11279L65.815 1.22288L66.526 1.36721L67.2324 1.54429L67.9334 1.75245L68.6284 1.98986L69.3168 2.25454L69.9982 2.54437L70.6723 2.8571L71.3389 3.19041L71.9977 3.54187L72.649 3.90897L73.2927 4.2892L73.9291 4.67997L74.5587 5.07873L75.1819 5.48289L75.7993 5.88995L76.4116 6.29742L77.0197 6.7029L77.6244 7.10406L78.2266 7.49869L78.8276 7.8847L79.4283 8.26013L80.0301 8.62319L80.6341 8.97222L81.2416 9.30577L81.8539 9.62254L82.4723 9.92145L83.0981 10.2016L83.7326 10.4623L84.3771 10.703L85.0327 10.9235L85.7007 11.1237L86.3822 11.3037L87.0783 11.4638L87.7899 11.6045L88.5179 11.7266L89.2631 11.8309L90.0262 11.9185L90.8077 11.9906L91.6081 12.0486L92.4276 12.094L93.2666 12.1285L94.125 12.1539L95.0027 12.1721L95.8994 12.1851L96.8147 12.195L97.7481 12.204L98.6988 12.2143L99.666 12.2282L100.649 12.2479L101.646 12.2757L102.656 12.3137L103.679 12.3639L104.712 12.428L105.755 12.5078L106.807 12.605L107.866 12.7209L108.931 12.8571L110.001 13.0146L111.074 13.1949L112.149 13.3988L113.225 13.6275L114.3 13.8817L115.374 14.1625L116.444 14.4705L117.51 14.8063L118.569 15.1708L119.62 15.5643L120.663 15.9873L121.695 16.4403L122.715 16.9235L123.721 17.4372L124.712 17.9816L125.687 18.5566L126.644 19.1622L127.581 19.7984L128.497 20.465L129.392 21.1617L130.262 21.8882L131.108 22.6441L131.927 23.4289L132.718 24.2423L133.48 25.0835L134.212 25.9519L134.912 26.8469L135.579 27.7675L136.212 28.7131L136.81 29.6826L137.371 30.675L137.895 31.6894L138.381 32.7246L138.827 33.7795L139.233 34.8528L139.598 35.9432L139.922 37.0494L140.204 38.1701L140.444 39.3038L140.641 40.4491L140.795 41.6044L140.906 42.7684L140.975 43.9394L141 45.116L140.983 46.2966L140.923 47.4797L140.821 48.6637L140.678 49.8473L140.494 51.0288L140.27 52.2068L140.007 53.3799L139.705 54.5467L139.365 55.7058L138.989 56.856L138.577 57.9961L138.13 59.1247L137.65 60.2407L137.138 61.3431L136.594 62.4308L136.021 63.5029L135.419 64.5584Z" fill="#063249" stroke="#F0B000"/>
</svg>
