<svg width="124" height="136" viewBox="0 0 124 136" fill="none" xmlns="http://www.w3.org/2000/svg">
<g id="Vector">
<path fill-rule="evenodd" clip-rule="evenodd" d="M118.903 73.0891L119.326 73.7759L119.73 74.4737L120.113 75.1818L120.474 75.8995L120.813 76.6261L121.128 77.3609L121.418 78.103L121.684 78.8516L121.925 79.6061L122.141 80.3655L122.332 81.1291L122.499 81.8962L122.641 82.6661L122.758 83.438L122.852 84.2113L122.923 84.9854L122.971 85.7596L122.996 86.5335L123 87.3063L122.982 88.0775L122.942 88.8463L122.88 89.6122L122.795 90.3742L122.688 91.1316L122.558 91.8835L122.405 92.6288L122.227 93.3667L122.025 94.0964L121.8 94.8172L121.551 95.5284L121.281 96.2295L120.988 96.9202L120.676 97.6004L120.345 98.2698L119.997 98.9286L119.633 99.577L119.255 100.215L118.864 100.844L118.464 101.463L118.054 102.074L117.638 102.678L117.217 103.275L116.792 103.866L116.366 104.452L115.939 105.035L115.513 105.615L115.09 106.194L114.67 106.773L114.255 107.352L113.845 107.934L113.441 108.518L113.045 109.107L112.655 109.7L112.273 110.3L111.898 110.907L111.531 111.52L111.171 112.142L110.818 112.773L110.471 113.412L110.129 114.06L109.793 114.716L109.46 115.382L109.13 116.055L108.803 116.737L108.475 117.426L108.147 118.121L107.817 118.821L107.483 119.525L107.144 120.232L106.799 120.939L106.446 121.646L106.084 122.351L105.712 123.051L105.327 123.744L104.929 124.428L104.516 125.101L104.087 125.761L103.642 126.404L103.179 127.029L102.698 127.632L102.197 128.212L101.676 128.765L101.136 129.29L100.575 129.784L99.9928 130.245L99.3908 130.67L98.7686 131.058L98.1267 131.407L97.4657 131.715L96.7864 131.981L96.0896 132.204L95.3766 132.383L94.6485 132.517L93.9067 132.607L93.1526 132.653L92.388 132.654L91.6143 132.613L90.8335 132.53L90.0473 132.407L89.2576 132.245L88.4662 132.048L87.6749 131.817L86.8856 131.556L86.1 131.267L85.3197 130.954L84.5463 130.622L83.7811 130.272L83.0254 129.909L82.2803 129.537L81.5466 129.159L80.8251 128.779L80.1164 128.4L79.4209 128.027L78.7388 127.661L78.0703 127.307L77.4153 126.968L76.7735 126.647L76.1446 126.346L75.5282 126.069L74.9235 125.818L74.3298 125.594L73.7463 125.401L73.172 125.239L72.6058 125.111L72.0467 125.017L71.4933 124.957L70.9445 124.934L70.399 124.946L69.8555 124.994L69.3127 125.077L68.7694 125.195L68.2242 125.346L67.676 125.531L67.1236 125.746L66.566 125.991L66.002 126.263L65.4307 126.561L64.8514 126.882L64.2631 127.225L63.6653 127.585L63.0574 127.962L62.439 128.353L61.8097 128.753L61.1693 129.162L60.5177 129.576L59.8549 129.991L59.1811 130.406L58.4965 130.817L57.8013 131.223L57.0961 131.619L56.3814 132.004L55.6578 132.374L54.926 132.728L54.1868 133.064L53.4411 133.378L52.6898 133.669L51.9338 133.936L51.1741 134.176L50.4118 134.387L49.6481 134.57L48.8839 134.721L48.1204 134.841L47.3586 134.927L46.5997 134.981L45.8448 135L45.0949 134.985L44.3511 134.935L43.6142 134.851L42.8854 134.733L42.1655 134.579L41.4553 134.393L40.7556 134.172L40.0673 133.919L39.3909 133.634L38.7271 133.317L38.0766 132.97L37.4397 132.594L36.8171 132.189L36.209 131.756L35.6159 131.297L35.0382 130.813L34.476 130.304L33.9298 129.772L33.3997 129.217L32.886 128.641L32.389 128.045L31.9089 127.43L31.4459 126.795L31.0003 126.143L30.5724 125.474L30.1624 124.788L29.7706 124.087L29.3973 123.37L29.0429 122.639L28.7076 121.894L28.3916 121.136L28.0954 120.366L27.8191 119.583L27.5627 118.79L27.326 117.986L27.1086 117.174L26.9095 116.355L26.7276 115.531L26.5613 114.704L26.4091 113.876L26.2687 113.05L26.1382 112.227L26.0151 111.411L25.897 110.602L25.7814 109.803L25.6656 109.015L25.547 108.241L25.423 107.482L25.291 106.738L25.1486 106.011L24.9933 105.302L24.8228 104.612L24.6349 103.939L24.4276 103.286L24.1991 102.651L23.9476 102.034L23.6717 101.434L23.3701 100.852L23.0417 100.285L22.6856 99.7337L22.3013 99.1957L21.8882 98.6701L21.4463 98.1553L20.9755 97.6498L20.4762 97.152L19.9489 96.66L19.3943 96.1723L18.8135 95.6869L18.2076 95.2019L17.5781 94.7157L16.9267 94.2263L16.2551 93.7321L15.5654 93.2311L14.86 92.7218L14.1412 92.2026L13.4116 91.6719L12.674 91.1282L11.9313 90.5703L11.1866 89.997L10.4431 89.4073L9.70393 88.8001L8.9726 88.1748L8.25249 87.5307L7.54712 86.8674L6.85999 86.1846L6.19467 85.4823L5.55468 84.7605L4.94354 84.0195L4.3647 83.2599L3.82155 82.4822L3.3174 81.6872L2.85539 80.876L2.43858 80.0498L2.06982 79.2098L1.75179 78.3577L1.48695 77.4949L1.27752 76.6234L1.12547 75.745L1.0325 74.8618L1 73.9757L1.02905 73.0891L1.12039 72.204L1.27443 71.3228L1.49122 70.4477L1.77045 69.5809L2.11142 68.7247L2.51308 67.8813L2.97398 67.0527L3.49232 66.2408L4.06594 65.4475L4.69234 64.6746L5.36871 63.9236L6.09193 63.1957L6.85863 62.4923L7.66521 61.8142L8.50788 61.1621L9.38268 60.5368L10.2856 59.9383L11.2125 59.3668L12.1594 58.8223L13.1223 58.3044L14.0973 57.8127L15.0808 57.3466L16.069 56.9053L17.0586 56.4879L18.046 56.0933L19.0283 55.7204L20.0022 55.3678L20.9651 55.0341L21.9142 54.7179L22.8471 54.4176L23.7615 54.1317L24.6553 53.8584L25.5267 53.596L26.3739 53.3427L27.1953 53.0969L27.9898 52.8566L28.756 52.6203L29.4933 52.386L30.2007 52.1521L30.8777 51.917L31.5241 51.6789L32.1397 51.4364L32.7246 51.188L33.2789 50.9323L33.8032 50.668L34.298 50.3941L34.7642 50.1095L35.2027 49.8133L35.6145 49.5048L36.001 49.1834L36.3636 48.8488L36.7037 48.5005L37.0229 48.1385L37.323 47.7629L37.6057 47.3738L37.8728 46.9715L38.1261 46.5567L38.3677 46.1299L38.5992 45.6918L38.8226 45.2434L39.0398 44.7856L39.2524 44.3195L39.4622 43.8462L39.6709 43.3669L39.8799 42.8828L40.0907 42.3951L40.3045 41.9051L40.5227 41.414L40.7462 40.9229L40.9758 40.433L41.2124 39.9452L41.4565 39.4604L41.7086 38.9795L41.9689 38.503L42.2377 38.0315L42.5148 37.5652L42.8001 37.1043L43.0933 36.6486L43.3942 36.198L43.7021 35.7519L44.0164 35.3096L44.3366 34.8704L44.6619 34.4329L44.9915 33.9961L45.3247 33.5584L45.6606 33.1181L45.9985 32.6735L46.3376 32.2228L46.6772 31.7638L47.0168 31.2944L47.3557 30.8127L47.6935 30.3163L48.03 29.8032L48.3648 29.2714L48.698 28.7189L49.0296 28.1438L49.3598 27.5446L49.6891 26.9199L50.0179 26.2684L50.347 25.5893L50.6772 24.8822L51.0095 24.1469L51.345 23.3838L51.6849 22.5935L52.0306 21.7772L52.3833 20.9366L52.7447 20.0737L53.1161 19.1913L53.499 18.2924L53.8949 17.3804L54.305 16.4592L54.7308 15.533L55.1732 14.6059L55.6331 13.6823L56.1114 12.7663L56.6086 11.8621L57.125 10.974L57.6609 10.1061L58.2163 9.26233L58.791 8.44659L59.3847 7.66237L59.9969 6.91294L60.6269 6.20126L61.2738 5.52995L61.9368 4.90127L62.6147 4.31716L63.3064 3.77915L64.0108 3.28844L64.7265 2.84585L65.4522 2.45184L66.1866 2.10653L66.9283 1.8097L67.676 1.56085L68.4285 1.35919L69.1844 1.20366L69.9426 1.09298L70.702 1.02565L71.4614 1L72.2199 1.01418L72.9766 1.06623L73.7307 1.15407L74.4814 1.27555L75.2282 1.42847L75.9704 1.61057L76.7077 1.81963L77.4398 2.05339L78.1662 2.30965L78.8869 2.58626L79.6017 2.88112L80.3106 3.19223L81.0137 3.51767L81.711 3.85564L82.4026 4.20444L83.0887 4.5625L83.7696 4.92838L84.4454 5.3008L85.1165 5.67857L85.783 6.0607L86.4454 6.4463L87.1038 6.83466L87.7585 7.22518L88.4098 7.61743L89.0579 8.01111L89.7029 8.40605L90.345 8.80222L90.9844 9.1997L91.621 9.59871L92.2549 9.99957L92.8861 10.4027L93.5143 10.8087L94.1395 11.2181L94.7614 11.6316L95.3797 12.05L95.9939 12.4742L96.6037 12.905L97.2085 13.3434L97.8077 13.7904L98.4006 14.2469L98.9865 14.714L99.5645 15.1927L100.134 15.6839L100.694 16.1887L101.243 16.708L101.78 17.2427L102.305 17.7936L102.816 18.3613L103.313 18.9467L103.793 19.55L104.257 20.172L104.703 20.8126L105.13 21.4723L105.537 22.1508L105.924 22.848L106.29 23.5634L106.634 24.2965L106.957 25.0463L107.257 25.8117L107.536 26.5914L107.793 27.3839L108.03 28.1879L108.245 29.0022L108.44 29.826L108.614 30.6583L108.767 31.4983L108.899 32.3453L109.01 33.1985L109.101 34.0572L109.17 34.9207L109.219 35.7881L109.248 36.6584L109.256 37.5307L109.246 38.4039L109.216 39.2767L109.169 40.1481L109.106 41.0166L109.027 41.8808L108.935 42.7395L108.83 43.5913L108.715 44.4346L108.593 45.2683L108.464 46.0908L108.331 46.9011L108.197 47.6978L108.064 48.4801L107.934 49.2469L107.811 49.9974L107.695 50.731L107.59 51.4472L107.499 52.1456L107.422 52.8261L107.363 53.4887L107.324 54.1335L107.306 54.7609L107.312 55.3714L107.342 55.9656L107.399 56.5445L107.482 57.1089L107.594 57.6599L107.734 58.1987L107.904 58.7266L108.103 59.2451L108.331 59.7555L108.588 60.2594L108.873 60.7583L109.186 61.2538L109.525 61.7475L109.89 62.2409L110.278 62.7355L110.689 63.2329L111.119 63.7344L111.568 64.2414L112.034 64.7551L112.513 65.2767L113.003 65.8073L113.503 66.3478L114.009 66.899L114.52 67.4617L115.032 68.0362L115.544 68.6232L116.052 69.2229L116.554 69.8355L117.048 70.461L117.532 71.0993L118.004 71.7503L118.461 72.4137L118.903 73.0891Z" fill="#003754"/>
<path d="M118.903 73.0891V73.0891ZM118.903 73.0891L119.326 73.7759L119.73 74.4737L120.113 75.1818L120.474 75.8995L120.813 76.6261L121.128 77.3609L121.418 78.103L121.684 78.8516L121.925 79.6061L122.141 80.3655L122.332 81.1291L122.499 81.8962L122.641 82.6661L122.758 83.438L122.852 84.2113L122.923 84.9854L122.971 85.7596L122.996 86.5335L123 87.3063L122.982 88.0775L122.942 88.8463L122.88 89.6122L122.795 90.3742L122.688 91.1316L122.558 91.8835L122.405 92.6288L122.227 93.3667L122.025 94.0964L121.8 94.8172L121.551 95.5284L121.281 96.2295L120.988 96.9203L120.676 97.6004L120.345 98.2698L119.997 98.9286L119.633 99.577L119.255 100.215L118.864 100.844L118.464 101.463L118.054 102.074L117.638 102.678L117.217 103.275L116.792 103.866L116.366 104.452L115.939 105.035L115.513 105.615L115.09 106.194L114.67 106.773L114.255 107.352L113.845 107.934L113.441 108.518L113.045 109.107L112.655 109.7L112.273 110.3L111.898 110.907L111.531 111.52L111.171 112.142L110.818 112.773L110.471 113.412L110.129 114.06L109.793 114.716L109.46 115.382L109.13 116.055L108.803 116.737L108.475 117.426L108.147 118.121L107.817 118.821L107.483 119.525L107.144 120.232L106.799 120.939L106.446 121.646L106.084 122.351L105.712 123.051L105.327 123.744L104.929 124.428L104.516 125.101L104.087 125.761L103.642 126.404L103.179 127.029L102.698 127.632L102.197 128.212L101.676 128.765L101.136 129.29L100.574 129.784L99.9928 130.245L99.3908 130.67L98.7686 131.058L98.1267 131.407L97.4657 131.715L96.7864 131.981L96.0896 132.204L95.3766 132.383L94.6485 132.517L93.9067 132.607L93.1526 132.653L92.388 132.654L91.6143 132.613L90.8335 132.53L90.0473 132.407L89.2576 132.245L88.4662 132.048L87.6749 131.817L86.8856 131.556L86.1 131.267L85.3197 130.954L84.5463 130.622L83.7811 130.272L83.0254 129.909L82.2803 129.537L81.5466 129.159L80.8251 128.779L80.1164 128.4L79.4209 128.027L78.7388 127.661L78.0703 127.307L77.4153 126.968L76.7735 126.647L76.1446 126.346L75.5282 126.069L74.9235 125.818L74.3298 125.594L73.7463 125.401L73.172 125.239L72.6058 125.111L72.0467 125.017L71.4933 124.957L70.9445 124.934L70.399 124.946L69.8555 124.994L69.3127 125.077L68.7694 125.195L68.2242 125.346L67.676 125.531L67.1236 125.746L66.566 125.99L66.002 126.263L65.4307 126.561L64.8514 126.882L64.2631 127.225L63.6653 127.585L63.0574 127.962L62.439 128.353L61.8097 128.753L61.1693 129.162L60.5177 129.576L59.8549 129.991L59.1811 130.406L58.4965 130.817L57.8013 131.223L57.0961 131.619L56.3814 132.004L55.6578 132.374L54.926 132.728L54.1868 133.064L53.4411 133.378L52.6898 133.669L51.9338 133.936L51.1741 134.176L50.4118 134.387L49.6481 134.57L48.8839 134.721L48.1204 134.841L47.3586 134.927L46.5997 134.981L45.8448 135L45.0949 134.985L44.3511 134.935L43.6142 134.851L42.8854 134.733L42.1655 134.579L41.4553 134.393L40.7556 134.172L40.0673 133.919L39.3909 133.634L38.7271 133.317L38.0766 132.97L37.4397 132.594L36.8171 132.189L36.209 131.756L35.6159 131.297L35.0382 130.813L34.476 130.304L33.9298 129.772L33.3997 129.217L32.886 128.641L32.389 128.045L31.9089 127.43L31.4459 126.795L31.0003 126.143L30.5724 125.474L30.1624 124.788L29.7706 124.087L29.3973 123.37L29.0429 122.639L28.7076 121.894L28.3916 121.136L28.0954 120.366L27.8191 119.583L27.5627 118.79L27.326 117.986L27.1086 117.174L26.9095 116.355L26.7276 115.531L26.5613 114.704L26.4091 113.876L26.2687 113.05L26.1382 112.227L26.0151 111.411L25.897 110.602L25.7814 109.803L25.6656 109.015L25.547 108.241L25.423 107.482L25.291 106.738L25.1486 106.011L24.9933 105.302L24.8228 104.612L24.6349 103.939L24.4276 103.286L24.1991 102.651L23.9476 102.034L23.6717 101.434L23.3701 100.852L23.0417 100.285L22.6856 99.7337L22.3013 99.1957L21.8882 98.6701L21.4463 98.1553L20.9755 97.6498L20.4762 97.152L19.9489 96.66L19.3943 96.1723L18.8135 95.6869L18.2076 95.2019L17.5781 94.7157L16.9267 94.2263L16.2551 93.7321L15.5654 93.2311L14.86 92.7218L14.1412 92.2026L13.4116 91.6719L12.674 91.1282L11.9313 90.5703L11.1866 89.997L10.4431 89.4073L9.70393 88.8001L8.9726 88.1748L8.25249 87.5307L7.54712 86.8674L6.85999 86.1846L6.19467 85.4823L5.55468 84.7605L4.94354 84.0195L4.3647 83.2599L3.82155 82.4822L3.3174 81.6872L2.85539 80.876L2.43858 80.0498L2.06982 79.2098L1.75179 78.3577L1.48695 77.4949L1.27752 76.6234L1.12547 75.7451L1.0325 74.8618L1 73.9757L1.02905 73.0891L1.12039 72.204L1.27443 71.3228L1.49122 70.4477L1.77045 69.5809L2.11142 68.7247L2.51308 67.8813L2.97398 67.0526L3.49232 66.2408L4.06594 65.4475L4.69234 64.6746L5.36871 63.9236L6.09193 63.1957L6.85863 62.4923L7.66521 61.8142L8.50788 61.1621L9.38268 60.5367L10.2856 59.9383L11.2125 59.3668L12.1594 58.8223L13.1223 58.3044L14.0973 57.8127L15.0808 57.3466L16.069 56.9053L17.0586 56.4879L18.046 56.0933L19.0283 55.7204L20.0022 55.3678L20.9651 55.0341L21.9142 54.7179L22.8471 54.4176L23.7615 54.1317L24.6553 53.8584L25.5267 53.596L26.3739 53.3427L27.1953 53.0969L27.9898 52.8566L28.756 52.6203L29.4933 52.386L30.2007 52.1521L30.8777 51.917L31.5241 51.6789L32.1397 51.4364L32.7246 51.188L33.2789 50.9323L33.8032 50.668L34.298 50.3941L34.7642 50.1095L35.2027 49.8133L35.6145 49.5048L36.001 49.1834L36.3636 48.8488L36.7037 48.5005L37.0229 48.1385L37.323 47.7629L37.6057 47.3738L37.8728 46.9715L38.1261 46.5567L38.3677 46.1299L38.5992 45.6918L38.8226 45.2434L39.0398 44.7856L39.2524 44.3195L39.4622 43.8462L39.6709 43.3669L39.8799 42.8828L40.0907 42.3951L40.3045 41.9051L40.5227 41.414L40.7462 40.9229L40.9758 40.433L41.2124 39.9452L41.4565 39.4604L41.7086 38.9795L41.9689 38.503L42.2377 38.0315L42.5148 37.5652L42.8001 37.1043L43.0933 36.6486L43.3942 36.198L43.7021 35.7519L44.0164 35.3096L44.3366 34.8704L44.6619 34.4329L44.9915 33.9961L45.3247 33.5584L45.6606 33.1181L45.9985 32.6735L46.3376 32.2228L46.6772 31.7638L47.0168 31.2944L47.3557 30.8127L47.6935 30.3163L48.03 29.8032L48.3648 29.2714L48.698 28.7189L49.0296 28.1438L49.3598 27.5446L49.6891 26.9199L50.0179 26.2684L50.347 25.5893L50.6772 24.8822L51.0095 24.1469L51.345 23.3838L51.6849 22.5935L52.0306 21.7772L52.3833 20.9366L52.7447 20.0737L53.1161 19.1913L53.499 18.2924L53.8949 17.3804L54.305 16.4592L54.7308 15.533L55.1732 14.6059L55.6331 13.6823L56.1114 12.7663L56.6086 11.8621L57.125 10.974L57.6609 10.1061L58.2163 9.26233L58.791 8.44659L59.3847 7.66237L59.9969 6.91294L60.6269 6.20126L61.2738 5.52995L61.9368 4.90127L62.6147 4.31716L63.3064 3.77915L64.0108 3.28844L64.7265 2.84585L65.4522 2.45184L66.1866 2.10653L66.9283 1.8097L67.676 1.56085L68.4285 1.35919L69.1844 1.20366L69.9426 1.09298L70.702 1.02565L71.4614 1L72.2199 1.01418L72.9766 1.06623L73.7307 1.15407L74.4814 1.27555L75.2282 1.42847L75.9704 1.61057L76.7077 1.81963L77.4398 2.05339L78.1662 2.30965L78.8869 2.58626L79.6017 2.88112L80.3106 3.19223L81.0137 3.51767L81.711 3.85564L82.4026 4.20444L83.0887 4.5625L83.7696 4.92838L84.4454 5.3008L85.1165 5.67857L85.783 6.0607L86.4454 6.4463L87.1038 6.83466L87.7585 7.22518L88.4098 7.61743L89.0579 8.01111L89.7029 8.40605L90.345 8.80222L90.9844 9.1997L91.621 9.59871L92.2549 9.99957L92.8861 10.4027L93.5143 10.8087L94.1395 11.2181L94.7614 11.6316L95.3797 12.05L95.9939 12.4742L96.6037 12.905L97.2085 13.3434L97.8077 13.7904L98.4006 14.2469L98.9865 14.714L99.5645 15.1927L100.134 15.6839L100.694 16.1887L101.243 16.708L101.78 17.2427L102.305 17.7936L102.816 18.3613L103.313 18.9467L103.793 19.55L104.257 20.172L104.703 20.8126L105.13 21.4723L105.537 22.1508L105.924 22.848L106.29 23.5634L106.634 24.2965L106.957 25.0463L107.257 25.8117L107.536 26.5914L107.793 27.3839L108.03 28.1879L108.245 29.0022L108.44 29.826L108.614 30.6583L108.767 31.4983L108.899 32.3453L109.01 33.1985L109.101 34.0572L109.17 34.9207L109.219 35.7881L109.248 36.6584L109.256 37.5307L109.246 38.4039L109.216 39.2767L109.169 40.1481L109.106 41.0166L109.027 41.8808L108.935 42.7395L108.83 43.5913L108.715 44.4346L108.593 45.2683L108.464 46.0908L108.331 46.9011L108.197 47.6978L108.064 48.4801L107.934 49.2469L107.811 49.9974L107.695 50.731L107.59 51.4472L107.499 52.1456L107.422 52.8261L107.363 53.4887L107.324 54.1335L107.306 54.7609L107.312 55.3714L107.342 55.9656L107.399 56.5445L107.482 57.1089L107.594 57.6599L107.734 58.1987L107.904 58.7266L108.103 59.2451L108.331 59.7555L108.588 60.2594L108.873 60.7583L109.186 61.2538L109.525 61.7475L109.89 62.2409L110.278 62.7355L110.689 63.2329L111.119 63.7344L111.568 64.2414L112.034 64.7551L112.513 65.2767L113.003 65.8073L113.503 66.3478L114.009 66.899L114.52 67.4617L115.032 68.0362L115.544 68.6232L116.052 69.2229L116.554 69.8355L117.048 70.461L117.532 71.0993L118.004 71.7503L118.461 72.4137L118.903 73.0891" stroke="#F0B000"/>
</g>
</svg>
