<svg width="124" height="136" viewBox="0 0 124 136" fill="none" xmlns="http://www.w3.org/2000/svg">
<path id="Vector" fill-rule="evenodd" clip-rule="evenodd" d="M118.921 72.4228L119.409 73.1613L119.87 73.9126L120.303 74.6758L120.706 75.4499L121.077 76.2338L121.416 77.0267L121.722 77.8273L121.994 78.6346L122.232 79.4475L122.437 80.2651L122.61 81.0863L122.749 81.9102L122.858 82.736L122.935 83.5628L122.982 84.3897L123 85.2162L122.989 86.0413L122.95 86.8644L122.882 87.6845L122.786 88.5007L122.662 89.3122L122.508 90.118L122.327 90.9174L122.119 91.7098L121.886 92.4948L121.628 93.2724L121.35 94.0425L121.052 94.8054L120.737 95.5617L120.408 96.3118L120.068 97.0567L119.719 97.7973L119.363 98.5345L119.004 99.2697L118.642 100.004L118.281 100.739L117.921 101.476L117.566 102.216L117.216 102.961L116.872 103.712L116.535 104.471L116.207 105.239L115.887 106.016L115.576 106.805L115.273 107.606L114.979 108.42L114.692 109.248L114.413 110.089L114.139 110.945L113.869 111.816L113.603 112.7L113.338 113.599L113.072 114.511L112.804 115.435L112.532 116.37L112.252 117.315L111.963 118.268L111.662 119.227L111.347 120.188L111.015 121.151L110.664 122.112L110.291 123.067L109.894 124.014L109.47 124.948L109.018 125.867L108.534 126.765L108.018 127.639L107.468 128.484L106.881 129.297L106.258 130.072L105.596 130.805L104.896 131.492L104.157 132.129L103.379 132.711L102.562 133.234L101.707 133.696L100.815 134.091L99.8881 134.419L98.9272 134.675L97.9347 134.858L96.9131 134.967L95.8651 135L94.7937 134.957L93.7022 134.838L92.594 134.645L91.4728 134.378L90.3423 134.04L89.2065 133.635L88.0692 133.165L86.9343 132.635L85.8054 132.05L84.6863 131.415L83.5802 130.737L82.4904 130.02L81.4197 129.271L80.3705 128.497L79.3449 127.703L78.3447 126.896L77.3712 126.081L76.4254 125.263L75.508 124.449L74.6191 123.642L73.7588 122.847L72.9266 122.067L72.1221 121.306L71.3445 120.566L70.5927 119.852L69.8657 119.163L69.1622 118.503L68.4808 117.873L67.82 117.274L67.1785 116.706L66.5546 116.171L65.9467 115.668L65.3534 115.197L64.7731 114.758L64.2043 114.351L63.6455 113.974L63.0953 113.626L62.5524 113.307L62.0155 113.015L61.4835 112.749L60.9552 112.506L60.4297 112.287L59.9061 112.088L59.3835 111.908L58.8612 111.746L58.3386 111.6L57.8151 111.468L57.2902 111.349L56.7636 111.24L56.2349 111.142L55.7037 111.051L55.1698 110.968L54.633 110.891L54.0929 110.819L53.5494 110.752L53.0021 110.689L52.4508 110.63L51.8951 110.574L51.3345 110.522L50.7685 110.473L50.1966 110.429L49.618 110.39L49.0319 110.356L48.4374 110.329L47.8333 110.309L47.2187 110.297L46.592 110.295L45.952 110.303L45.2971 110.323L44.6257 110.356L43.9362 110.402L43.2267 110.463L42.4956 110.54L41.7411 110.633L40.9614 110.742L40.155 110.867L39.3203 111.009L38.4559 111.167L37.5607 111.34L36.6338 111.526L35.6745 111.725L34.6826 111.934L33.658 112.151L32.6014 112.373L31.5137 112.598L30.3964 112.821L29.2513 113.038L28.081 113.247L26.8884 113.443L25.6771 113.621L24.4509 113.777L23.2142 113.906L21.9711 114.005L20.7252 114.071L19.4801 114.102L18.2394 114.094L17.0068 114.047L15.7865 113.957L14.5827 113.823L13.4 113.642L12.2432 113.414L11.1169 113.137L10.0263 112.809L8.97623 112.429L7.97175 111.996L7.01779 111.511L6.1192 110.972L5.28063 110.38L4.50656 109.737L3.80114 109.042L3.16824 108.297L2.61132 107.504L2.13342 106.664L1.73709 105.782L1.42439 104.858L1.1968 103.896L1.05524 102.9L1 101.874L1.03076 100.82L1.14655 99.7431L1.34576 98.6474L1.62613 97.5371L1.98476 96.4162L2.41813 95.2892L2.92211 94.1602L3.49198 93.0332L4.1225 91.9124L4.80791 90.8014L5.54196 89.704L6.31802 88.6232L7.12907 87.5623L7.96779 86.5239L8.82663 85.5104L9.69783 84.5237L10.5735 83.5655L11.4458 82.6368L12.3069 81.7384L13.1488 80.8708L13.964 80.0337L14.7451 79.2266L15.4849 78.4486L16.1768 77.6983L16.8144 76.9741L17.392 76.2739L17.9043 75.5952L18.3465 74.9354L18.7148 74.2915L19.0058 73.6603L19.2169 73.0386L19.3463 72.4228L19.393 71.8094L19.3568 71.1947L19.2383 70.5753L19.0388 69.9477L18.7606 69.3083L18.4066 68.6542L17.9807 67.9821L17.4872 67.2895L16.9312 66.5738L16.3186 65.833L15.6556 65.0653L14.9489 64.2694L14.2056 63.4443L13.433 62.5894L12.6387 61.7047L11.8301 60.7904L11.0146 59.847L10.1993 58.8756L9.39088 57.8773L8.59571 56.8536L7.82014 55.8063L7.07036 54.7376L6.3528 53.6499L5.6742 52.5463L5.04138 51.4303L4.46112 50.3056L3.93997 49.1765L3.48414 48.0475L3.09938 46.9232L2.79088 45.8085L2.56321 44.7084L2.42027 43.6278L2.3652 42.5718L2.40041 41.5451L2.52752 40.5526L2.74738 39.5987L3.06006 38.6878L3.46486 37.8237L3.96036 37.0102L4.54442 36.2504L5.21424 35.5471L5.9664 34.9027L6.7969 34.3191L7.70119 33.7975L8.67429 33.3389L9.71079 32.9436L10.8049 32.6113L11.9506 32.3413L13.1415 32.1322L14.3713 31.9824L15.6333 31.8895L16.9208 31.8507L18.2273 31.8626L19.5461 31.9217L20.8709 32.0238L22.1952 32.1643L23.5131 32.3384L24.8186 32.541L26.1062 32.7665L27.3707 33.0094L28.6073 33.2638L29.8115 33.5237L30.9793 33.783L32.1073 34.0356L33.1922 34.2755L34.2316 34.4966L35.2233 34.6931L36.1658 34.8591L37.0581 34.9892L37.8995 35.0781L38.6901 35.1209L39.4304 35.1131L40.1212 35.0504L40.764 34.9293L41.3607 34.7463L41.9135 34.499L42.4252 34.1852L42.8988 33.8033L43.3376 33.3525L43.7453 32.8324L44.1258 32.2433L44.4832 31.5864L44.8217 30.8632L45.1456 30.0759L45.4594 29.2275L45.7675 28.3214L46.0741 27.3615L46.3835 26.3524L46.6999 25.299L47.0271 24.2067L47.3688 23.081L47.7283 21.9278L48.1088 20.7531L48.513 19.5629L48.9432 18.363L49.4012 17.1591L49.8888 15.9568L50.4073 14.762L50.9579 13.5809L51.5414 12.42L52.1584 11.2862L52.8091 10.1859L53.4933 9.12564L54.2106 8.11169L54.96 7.14987L55.7402 6.24557L56.5497 5.40365L57.3866 4.62837L58.2487 3.92336L59.1337 3.29158L60.0389 2.73529L60.9618 2.25605L61.8995 1.8547L62.8492 1.53144L63.808 1.28576L64.7731 1.11654L65.7418 1.02205L66.7114 1L67.6795 1.04758L68.6438 1.16152L69.6022 1.33815L70.5527 1.57342L71.4938 1.86301L72.424 2.20236L73.3421 2.58673L74.2475 3.01127L75.1393 3.47106L76.0173 3.96122L76.8813 4.47688L77.7314 5.01332L78.5681 5.56597L79.3917 6.13046L80.2032 6.7027L81.0032 7.27885L81.7928 7.85544L82.5732 8.42933L83.3454 8.99777L84.1106 9.55842L84.8701 10.1093L85.6251 10.649L86.3765 11.1764L87.1256 11.6909L87.8731 12.1922L88.62 12.6805L89.3668 13.1564L90.1139 13.6209L90.8617 14.0753L91.6101 14.5212L92.3588 14.9606L93.1076 15.3955L93.8557 15.8284L94.6021 16.2617L95.3458 16.6982L96.0854 17.1405L96.8192 17.5913L97.5457 18.0534L98.2628 18.5294L98.9686 19.0218L99.6609 19.5329L100.337 20.0647L100.996 20.6193L101.635 21.1981L102.251 21.8023L102.844 22.4329L103.41 23.0903L103.949 23.7747L104.459 24.4857L104.938 25.2227L105.387 25.9845L105.805 26.7697L106.192 27.5763L106.548 28.4021L106.874 29.2448L107.171 30.1016L107.441 30.9703L107.684 31.8491L107.901 32.7367L108.09 33.632L108.253 34.5342L108.389 35.4423L108.498 36.3557L108.581 37.2732L108.637 38.1938L108.667 39.1163L108.672 40.0395L108.652 40.9617L108.61 41.8814L108.548 42.797L108.466 43.7066L108.368 44.6085L108.255 45.5008L108.132 46.3818L108.002 47.2498L107.867 48.1032L107.73 48.9404L107.597 49.7603L107.47 50.5616L107.353 51.3434L107.25 52.1052L107.164 52.8464L107.099 53.5668L107.057 54.2666L107.042 54.9461L107.057 55.6059L107.104 56.2468L107.185 56.8699L107.301 57.4765L107.454 58.068L107.645 58.6462L107.875 59.2127L108.142 59.7696L108.447 60.3187L108.79 60.8623L109.168 61.4024L109.58 61.941L110.025 62.4803L110.499 63.0222L111 63.5688L111.525 64.1217L112.071 64.6828L112.635 65.2534L113.212 65.8351L113.799 66.429L114.393 67.0361L114.989 67.6573L115.583 68.293L116.173 68.9437L116.754 69.6096L117.322 70.2908L117.875 70.9869L118.408 71.6978L118.921 72.4228Z" fill="#003754" stroke="#F0B000"/>
</svg>
