<svg width="124" height="136" viewBox="0 0 124 136" fill="none" xmlns="http://www.w3.org/2000/svg">
<g id="Vector">
<path fill-rule="evenodd" clip-rule="evenodd" d="M121.165 61.7174L121.281 62.2631L121.394 62.8119L121.504 63.3638L121.612 63.9188L121.717 64.4771L121.819 65.0388L121.918 65.6037L122.014 66.172L122.106 66.7437L122.195 67.3189L122.281 67.8975L122.363 68.4797L122.44 69.0653L122.514 69.6544L122.583 70.247L122.648 70.843L122.708 71.4426L122.763 72.0455L122.813 72.6517L122.857 73.2613L122.896 73.8742L122.929 74.4902L122.956 75.1093L122.977 75.7313L122.992 76.3563L122.999 76.9841L123 77.6146L122.994 78.2476L122.98 78.883L122.959 79.5206L122.93 80.1604L122.893 80.8022L122.849 81.4458L122.796 82.0911L122.735 82.7378L122.665 83.3858L122.587 84.0351L122.5 84.6852L122.404 85.3362L122.3 85.9879L122.186 86.6399L122.064 87.2923L121.932 87.9448L121.791 88.5973L121.641 89.2495L121.481 89.9014L121.313 90.5527L121.135 91.2034L120.948 91.8533L120.751 92.5023L120.546 93.1501L120.331 93.7968L120.108 94.4421L119.875 95.086L119.633 95.7284L119.382 96.3691L119.122 97.0081L118.854 97.6453L118.576 98.2806L118.29 98.914L117.996 99.5453L117.692 100.175L117.381 100.802L117.06 101.427L116.732 102.049L116.395 102.67L116.05 103.288L115.697 103.903L115.336 104.517L114.967 105.127L114.59 105.736L114.205 106.342L113.812 106.945L113.412 107.546L113.004 108.144L112.587 108.74L112.164 109.333L111.732 109.923L111.293 110.51L110.846 111.094L110.392 111.676L109.93 112.254L109.46 112.83L108.982 113.402L108.497 113.97L108.004 114.536L107.503 115.097L106.994 115.655L106.478 116.209L105.954 116.76L105.422 117.306L104.883 117.848L104.335 118.385L103.78 118.919L103.217 119.447L102.646 119.971L102.067 120.49L101.481 121.004L100.886 121.512L100.284 122.015L99.6737 122.512L99.0557 123.004L98.4298 123.489L97.796 123.968L97.1544 124.44L96.505 124.905L95.8478 125.364L95.1829 125.815L94.5102 126.258L93.8298 126.693L93.1418 127.121L92.4462 127.539L91.743 127.95L91.0325 128.351L90.3145 128.742L89.5893 129.124L88.857 129.497L88.1176 129.859L87.3712 130.21L86.618 130.551L85.8582 130.881L85.0918 131.2L84.3191 131.507L83.5401 131.803L82.7552 132.086L81.9643 132.357L81.1678 132.616L80.3658 132.862L79.5586 133.095L78.7462 133.316L77.9291 133.523L77.1072 133.717L76.2809 133.897L75.4504 134.064L74.6159 134.218L73.7776 134.358L72.9357 134.484L72.0905 134.597L71.2421 134.695L70.3909 134.78L69.5369 134.852L68.6804 134.909L67.8217 134.952L66.9609 134.982L66.0983 134.998L65.234 135L64.3682 134.988L63.5013 134.963L62.6333 134.924L61.7644 134.871L60.8949 134.804L60.0249 134.724L59.1546 134.631L58.2843 134.524L57.414 134.403L56.544 134.269L55.6744 134.122L54.8055 133.962L53.9374 133.788L53.0702 133.601L52.2042 133.401L51.3394 133.188L50.4762 132.962L49.6146 132.723L48.7548 132.471L47.897 132.207L47.0413 131.929L46.188 131.639L45.3372 131.336L44.4892 131.02L43.644 130.692L42.8018 130.35L41.9629 129.997L41.1274 129.63L40.2955 129.251L39.4673 128.86L38.643 128.456L37.8229 128.04L37.0069 127.611L36.1953 127.17L35.3883 126.718L34.586 126.253L33.7885 125.776L32.996 125.287L32.2087 124.787L31.4268 124.275L30.6503 123.751L29.8795 123.215L29.1145 122.668L28.3555 122.11L27.6027 121.54L26.8562 120.959L26.1163 120.366L25.3831 119.762L24.6568 119.147L23.9377 118.521L23.2259 117.884L22.5216 117.236L21.8251 116.577L21.1366 115.907L20.4563 115.227L19.7844 114.535L19.1212 113.833L18.4669 113.12L17.8218 112.397L17.186 111.663L16.5599 110.919L15.9437 110.164L15.3375 109.4L14.7417 108.625L14.1565 107.841L13.5821 107.046L13.0187 106.242L12.4666 105.429L11.926 104.606L11.397 103.775L10.8798 102.934L10.3747 102.085L9.8818 101.227L9.40121 100.36L8.93309 99.4859L8.47756 98.6037L8.03471 97.7139L7.60467 96.8168L7.18754 95.9125L6.78341 95.0013L6.39238 94.0835L6.01454 93.1593L5.64997 92.229L5.29875 91.2927L4.96097 90.3509L4.63668 89.4036L4.32596 88.4512L4.02887 87.4939L3.74546 86.532L3.47579 85.5657L3.21991 84.5953L2.97785 83.621L2.74966 82.6431L2.53537 81.6618L2.335 80.6775L2.14859 79.6902L1.97616 78.7004L1.81771 77.7082L1.67327 76.7139L1.54285 75.7177L1.42645 74.72L1.32408 73.7209L1.23573 72.7207L1.16141 71.7197L1.10111 70.7181L1.05483 69.7161L1.02255 68.7141L1.00428 67.7122L1 66.7106L1.0097 65.7097L1.03336 64.7097L1.07098 63.7108L1.12254 62.7133L1.18801 61.7174L1.26737 60.7233L1.3606 59.7314L1.46767 58.7418L1.58854 57.7548L1.72319 56.7706L1.87158 55.7895L2.03367 54.8117L2.20944 53.8375L2.39883 52.8671L2.60183 51.9007L2.81838 50.9387L3.04845 49.9812L3.29199 49.0285L3.54897 48.0808L3.81934 47.1385L4.10305 46.2016L4.40007 45.2706L4.71033 44.3456L5.03378 43.427L5.37037 42.5148L5.72004 41.6095L6.08273 40.7113L6.45835 39.8204L6.84684 38.9371L7.24812 38.0616L7.6621 37.1942L8.08868 36.3352L8.52775 35.4848L8.97921 34.6432L9.44292 33.8108L9.91877 32.9877L10.4066 32.1742L10.9063 31.3705L11.4176 30.5768L11.9404 29.7935L12.4745 29.0206L13.0196 28.2585L13.5757 27.5072L14.1423 26.767L14.7194 26.038L15.3066 25.3205L15.9035 24.6145L16.5101 23.9201L17.1259 23.2375L17.7505 22.5668L18.3838 21.908L19.0252 21.2612L19.6745 20.6264L20.3313 20.0035L20.9952 19.3927L21.6658 18.7938L22.3428 18.2069L23.0258 17.6318L23.7144 17.0685L24.4083 16.517L25.1072 15.9772L25.8107 15.4489L26.5184 14.932L27.2301 14.4265L27.9455 13.9322L28.6642 13.4489L29.3859 12.9766L30.1104 12.5151L30.8374 12.0643L31.5667 11.6239L32.2979 11.1938L33.0308 10.7739L33.7653 10.364L34.5011 9.9639L35.2379 9.57346L35.9757 9.19252L36.7142 8.82089L37.4533 8.45843L38.1928 8.10497L38.9326 7.76036L39.6726 7.42445L40.4125 7.09709L41.1524 6.77815L41.8922 6.46749L42.6317 6.16501L43.371 5.87058L44.1098 5.58412L44.8483 5.30552L45.5863 5.03472L46.3238 4.77165L47.0609 4.51628L47.7975 4.26861L48.5336 4.02864L49.2692 3.79643L50.0044 3.57203L50.7392 3.35554L51.4736 3.14706L52.2078 2.94675L52.9416 2.75474L53.6752 2.57124L54.4086 2.39643L55.1418 2.23054L55.8748 2.0738L56.6077 1.92647L57.3404 1.78882L58.073 1.66113L58.8055 1.5437L59.5378 1.43682L60.2699 1.34081L61.0017 1.25599L61.7331 1.18268L62.4642 1.12121L63.1948 1.07188L63.9247 1.03503L64.6538 1.01097L65.3821 1L66.1093 1.00243L66.8353 1.01854L67.5598 1.0486L68.2827 1.09288L69.0036 1.15161L69.7225 1.22501L70.439 1.31327L71.1529 1.41658L71.8639 1.53507L72.5716 1.66887L73.2759 1.81806L73.9763 1.9827L74.6727 2.16281L75.3646 2.3584L76.0517 2.56939L76.7337 2.79573L77.4104 3.03728L78.0814 3.29389L78.7462 3.56536L79.4048 3.85144L80.0567 4.15187L80.7017 4.46631L81.3394 4.79442L81.9697 5.13578L82.5923 5.48997L83.2068 5.85653L83.8132 6.235L84.4113 6.62487L85.0007 7.02564L85.5815 7.43677L86.1534 7.85772L86.7164 8.28793L87.2703 8.72684L87.8151 9.17386L88.3507 9.6284L88.8772 10.0899L89.3944 10.5577L89.9025 11.0312L90.4014 11.5099L90.8913 11.9932L91.3722 12.4803L91.8443 12.9709L92.3077 13.4642L92.7624 13.9598L93.2088 14.457L93.647 14.9554L94.0772 15.4544L94.4996 15.9534L94.9145 16.452L95.3222 16.9498L95.7228 17.4463L96.1168 17.941L96.5043 18.4336L96.8858 18.9237L97.2614 19.4109L97.6316 19.895L97.9966 20.3756L98.3568 20.8524L98.7125 21.3253L99.064 21.794L99.4117 22.2584L99.7558 22.7183L100.097 23.1736L100.435 23.6243L100.77 24.0703L101.103 24.5117L101.434 24.9484L101.763 25.3806L102.091 25.8083L102.417 26.2316L102.742 26.6507L103.066 27.0657L103.389 27.4769L103.711 27.8844L104.032 28.2885L104.354 28.6895L104.674 29.0875L104.994 29.4829L105.314 29.876L105.634 30.267L105.953 30.6563L106.272 31.0441L106.59 31.4308L106.908 31.8167L107.225 32.2021L107.541 32.5873L107.856 32.9727L108.171 33.3584L108.484 33.7449L108.796 34.1323L109.106 34.521L109.415 34.9112L109.722 35.3032L110.027 35.6972L110.329 36.0934L110.629 36.492L110.926 36.8932L111.221 37.2972L111.512 37.704L111.8 38.1139L112.084 38.5269L112.365 38.9432L112.642 39.3627L112.916 39.7856L113.185 40.2118L113.449 40.6415L113.71 41.0745L113.966 41.5109L114.218 41.9507L114.465 42.3938L114.708 42.8401L114.946 43.2896L115.179 43.7422L115.409 44.1979L115.633 44.6565L115.854 45.1181L116.07 45.5825L116.281 46.0497L116.489 46.5196L116.692 46.9921L116.891 47.4672L117.086 47.9448L117.277 48.4248L117.464 48.9073L117.648 49.3921L117.827 49.8792L118.004 50.3686L118.176 50.8602L118.346 51.3541L118.512 51.8502L118.675 52.3485L118.835 52.8489L118.993 53.3516L119.147 53.8564L119.298 54.3635L119.447 54.8728L119.594 55.3844L119.738 55.8983L119.879 56.4145L120.018 56.9331L120.155 57.4541L120.289 57.9777L120.421 58.5038L120.551 59.0325L120.678 59.5639L120.804 60.098L120.926 60.6349L121.047 61.1747L121.165 61.7174Z" fill="#003754"/>
<path d="M121.165 61.7174V61.7174ZM121.165 61.7174L121.281 62.2631L121.394 62.8119L121.504 63.3638L121.612 63.9188L121.717 64.4772L121.819 65.0388L121.918 65.6037L122.014 66.172L122.106 66.7437L122.195 67.3189L122.281 67.8975L122.363 68.4797L122.44 69.0653L122.514 69.6544L122.583 70.247L122.648 70.843L122.708 71.4425L122.763 72.0455L122.813 72.6517L122.857 73.2613L122.896 73.8742L122.929 74.4902L122.956 75.1093L122.977 75.7313L122.992 76.3563L122.999 76.9841L123 77.6146L122.994 78.2476L122.98 78.883L122.959 79.5206L122.93 80.1604L122.893 80.8022L122.849 81.4458L122.796 82.0911L122.735 82.7378L122.665 83.3859L122.587 84.0351L122.5 84.6852L122.404 85.3362L122.3 85.9879L122.186 86.6399L122.064 87.2923L121.932 87.9448L121.791 88.5973L121.641 89.2495L121.481 89.9014L121.313 90.5527L121.135 91.2034L120.948 91.8533L120.751 92.5023L120.546 93.1501L120.331 93.7968L120.108 94.4421L119.875 95.086L119.633 95.7284L119.382 96.3691L119.122 97.0081L118.854 97.6453L118.576 98.2806L118.29 98.914L117.996 99.5453L117.692 100.175L117.381 100.802L117.06 101.427L116.732 102.049L116.395 102.67L116.05 103.288L115.697 103.903L115.336 104.517L114.967 105.127L114.59 105.736L114.205 106.342L113.812 106.945L113.412 107.546L113.004 108.144L112.587 108.74L112.164 109.333L111.732 109.923L111.293 110.51L110.846 111.094L110.392 111.676L109.93 112.254L109.46 112.83L108.982 113.402L108.497 113.97L108.004 114.536L107.503 115.097L106.994 115.655L106.478 116.209L105.954 116.76L105.422 117.306L104.883 117.848L104.335 118.385L103.78 118.919L103.217 119.447L102.646 119.971L102.067 120.49L101.481 121.004L100.886 121.512L100.284 122.015L99.6737 122.512L99.0557 123.004L98.4298 123.489L97.796 123.968L97.1544 124.44L96.505 124.905L95.8478 125.364L95.1829 125.815L94.5102 126.258L93.8298 126.693L93.1418 127.121L92.4462 127.539L91.743 127.95L91.0325 128.351L90.3145 128.742L89.5894 129.124L88.857 129.497L88.1176 129.859L87.3712 130.21L86.618 130.551L85.8582 130.881L85.0918 131.2L84.3191 131.507L83.5401 131.803L82.7552 132.086L81.9643 132.357L81.1678 132.616L80.3658 132.862L79.5586 133.095L78.7462 133.316L77.9291 133.523L77.1072 133.717L76.2809 133.897L75.4504 134.064L74.6159 134.218L73.7776 134.358L72.9357 134.484L72.0905 134.597L71.2421 134.695L70.3909 134.78L69.5369 134.852L68.6804 134.909L67.8217 134.952L66.9609 134.982L66.0983 134.998L65.234 135L64.3682 134.988L63.5013 134.963L62.6333 134.924L61.7644 134.871L60.8949 134.804L60.0249 134.724L59.1546 134.631L58.2843 134.524L57.414 134.403L56.544 134.269L55.6744 134.122L54.8055 133.962L53.9374 133.788L53.0702 133.601L52.2042 133.401L51.3394 133.188L50.4762 132.962L49.6146 132.723L48.7548 132.471L47.897 132.207L47.0413 131.929L46.188 131.639L45.3372 131.336L44.4892 131.02L43.644 130.692L42.8018 130.35L41.9629 129.997L41.1274 129.63L40.2955 129.251L39.4673 128.86L38.643 128.456L37.8229 128.04L37.0069 127.611L36.1953 127.17L35.3883 126.718L34.586 126.253L33.7885 125.776L32.996 125.287L32.2087 124.787L31.4268 124.275L30.6503 123.751L29.8795 123.215L29.1145 122.668L28.3555 122.11L27.6027 121.54L26.8562 120.959L26.1163 120.366L25.3831 119.762L24.6568 119.147L23.9377 118.521L23.2259 117.884L22.5216 117.236L21.8251 116.577L21.1366 115.907L20.4563 115.227L19.7844 114.535L19.1212 113.833L18.4669 113.12L17.8218 112.397L17.186 111.663L16.5599 110.919L15.9437 110.164L15.3375 109.4L14.7417 108.625L14.1565 107.841L13.5821 107.046L13.0187 106.242L12.4666 105.429L11.926 104.606L11.397 103.775L10.8798 102.934L10.3747 102.085L9.8818 101.227L9.40121 100.36L8.93309 99.4859L8.47756 98.6037L8.03471 97.7139L7.60468 96.8168L7.18754 95.9125L6.78341 95.0013L6.39238 94.0835L6.01454 93.1593L5.64997 92.229L5.29875 91.2927L4.96097 90.3509L4.63668 89.4036L4.32596 88.4512L4.02887 87.4939L3.74546 86.532L3.47579 85.5657L3.21991 84.5953L2.97785 83.621L2.74966 82.6431L2.53537 81.6618L2.335 80.6775L2.14859 79.6902L1.97616 78.7004L1.81771 77.7082L1.67327 76.7139L1.54285 75.7177L1.42645 74.72L1.32408 73.7209L1.23573 72.7207L1.16141 71.7197L1.10111 70.7181L1.05483 69.7161L1.02255 68.7141L1.00428 67.7121L1 66.7106L1.0097 65.7097L1.03336 64.7097L1.07098 63.7108L1.12254 62.7133L1.18801 61.7174L1.26737 60.7233L1.3606 59.7314L1.46767 58.7418L1.58854 57.7548L1.72319 56.7706L1.87158 55.7895L2.03367 54.8117L2.20944 53.8375L2.39883 52.8671L2.60183 51.9007L2.81838 50.9387L3.04845 49.9812L3.29199 49.0285L3.54897 48.0808L3.81934 47.1385L4.10305 46.2016L4.40007 45.2706L4.71033 44.3456L5.03378 43.427L5.37037 42.5148L5.72004 41.6095L6.08272 40.7113L6.45835 39.8204L6.84684 38.9371L7.24812 38.0616L7.6621 37.1942L8.08868 36.3352L8.52775 35.4848L8.97921 34.6432L9.44292 33.8108L9.91877 32.9877L10.4066 32.1742L10.9063 31.3705L11.4176 30.5768L11.9404 29.7935L12.4745 29.0206L13.0196 28.2585L13.5757 27.5072L14.1423 26.767L14.7194 26.038L15.3066 25.3205L15.9035 24.6145L16.5101 23.9201L17.1259 23.2375L17.7505 22.5668L18.3838 21.908L19.0252 21.2612L19.6745 20.6264L20.3313 20.0035L20.9952 19.3927L21.6658 18.7938L22.3428 18.2069L23.0258 17.6318L23.7144 17.0685L24.4083 16.517L25.1072 15.9772L25.8107 15.4489L26.5184 14.932L27.2301 14.4265L27.9455 13.9322L28.6642 13.4489L29.3859 12.9766L30.1104 12.5151L30.8374 12.0643L31.5667 11.6239L32.2979 11.1938L33.0308 10.7739L33.7653 10.364L34.5011 9.9639L35.238 9.57346L35.9757 9.19251L36.7142 8.82089L37.4533 8.45843L38.1928 8.10497L38.9326 7.76036L39.6726 7.42445L40.4125 7.09709L41.1524 6.77815L41.8922 6.46749L42.6317 6.16501L43.371 5.87058L44.1098 5.58412L44.8483 5.30552L45.5863 5.03472L46.3238 4.77165L47.0609 4.51628L47.7975 4.26861L48.5336 4.02864L49.2692 3.79643L50.0044 3.57203L50.7392 3.35554L51.4736 3.14706L52.2078 2.94675L52.9416 2.75474L53.6752 2.57124L54.4086 2.39643L55.1418 2.23054L55.8748 2.0738L56.6077 1.92647L57.3404 1.78882L58.073 1.66113L58.8055 1.5437L59.5378 1.43682L60.2699 1.34081L61.0017 1.25599L61.7331 1.18268L62.4642 1.12121L63.1948 1.07188L63.9247 1.03503L64.6538 1.01097L65.3821 1L66.1093 1.00243L66.8353 1.01854L67.5598 1.0486L68.2827 1.09288L69.0036 1.15161L69.7225 1.22501L70.439 1.31327L71.1529 1.41658L71.8639 1.53507L72.5716 1.66887L73.2759 1.81806L73.9763 1.9827L74.6727 2.16281L75.3646 2.3584L76.0517 2.56939L76.7338 2.79573L77.4104 3.03728L78.0813 3.29389L78.7462 3.56536L79.4048 3.85144L80.0567 4.15187L80.7017 4.46631L81.3394 4.79442L81.9697 5.13578L82.5923 5.48997L83.2068 5.85653L83.8132 6.235L84.4113 6.62487L85.0007 7.02564L85.5815 7.43677L86.1534 7.85772L86.7164 8.28793L87.2703 8.72684L87.8151 9.17386L88.3507 9.6284L88.8772 10.0899L89.3944 10.5577L89.9025 11.0312L90.4014 11.5099L90.8913 11.9932L91.3722 12.4803L91.8443 12.9709L92.3077 13.4642L92.7624 13.9598L93.2088 14.457L93.647 14.9554L94.0772 15.4544L94.4996 15.9534L94.9145 16.452L95.3222 16.9498L95.7228 17.4463L96.1168 17.941L96.5043 18.4336L96.8858 18.9237L97.2614 19.4109L97.6316 19.895L97.9966 20.3756L98.3568 20.8524L98.7125 21.3253L99.064 21.794L99.4117 22.2584L99.7558 22.7183L100.097 23.1736L100.435 23.6243L100.77 24.0703L101.103 24.5117L101.434 24.9484L101.763 25.3806L102.091 25.8083L102.417 26.2316L102.742 26.6507L103.066 27.0657L103.389 27.4769L103.711 27.8844L104.032 28.2885L104.354 28.6895L104.674 29.0875L104.994 29.4829L105.314 29.876L105.634 30.267L105.953 30.6563L106.272 31.0441L106.59 31.4308L106.908 31.8167L107.225 32.2021L107.541 32.5873L107.856 32.9727L108.171 33.3584L108.484 33.7449L108.796 34.1323L109.106 34.521L109.415 34.9112L109.722 35.3032L110.027 35.6972L110.329 36.0934L110.629 36.492L110.926 36.8932L111.221 37.2972L111.512 37.704L111.8 38.1139L112.084 38.5269L112.365 38.9432L112.642 39.3627L112.916 39.7856L113.185 40.2118L113.449 40.6415L113.71 41.0745L113.966 41.5109L114.218 41.9507L114.465 42.3938L114.708 42.8401L114.946 43.2896L115.179 43.7422L115.409 44.1979L115.633 44.6565L115.854 45.1181L116.07 45.5825L116.281 46.0497L116.489 46.5195L116.692 46.9921L116.891 47.4672L117.086 47.9448L117.277 48.4248L117.464 48.9073L117.648 49.3921L117.827 49.8792L118.004 50.3686L118.176 50.8602L118.346 51.3541L118.512 51.8502L118.675 52.3485L118.835 52.8489L118.993 53.3516L119.147 53.8564L119.298 54.3635L119.447 54.8728L119.594 55.3844L119.738 55.8983L119.879 56.4145L120.018 56.9331L120.155 57.4541L120.289 57.9777L120.421 58.5038L120.551 59.0325L120.678 59.5639L120.804 60.098L120.926 60.6349L121.047 61.1747L121.165 61.7174" stroke="#F0B000"/>
</g>
</svg>
